<svg xmlns="http://www.w3.org/2000/svg" version="1.1" xmlns:xlink="http://www.w3.org/1999/xlink" xmlns:svgjs="http://svgjs.dev/svgjs" width="500" height="300"><svg xmlns="http://www.w3.org/2000/svg" xmlns:xlink="http://www.w3.org/1999/xlink" width="500" zoomAndPan="magnify" viewBox="0 0 375 225" height="300" preserveAspectRatio="xMidYMid meet" version="1.0"><defs><clipPath id="SvgjsClipPath1003"><path d="M 29.050781 110 L 346 110 L 346 225 L 29.050781 225 Z M 29.050781 110 " clip-rule="nonzero"></path></clipPath><clipPath id="SvgjsClipPath1002"><path d="M 29.050781 110 L 346 110 L 346 225 L 29.050781 225 Z M 29.050781 110 " clip-rule="nonzero"></path></clipPath></defs><g clip-path="url(#495346ee0b)"><path fill="#738fb4" d="M 345.949219 189.355469 C 345.949219 189.355469 345.117188 189.699219 343.546875 190.347656 C 341.972656 190.988281 339.667969 191.957031 336.683594 193.128906 C 330.734375 195.5 322.136719 198.839844 311.480469 202.496094 C 308.816406 203.40625 306.027344 204.363281 303.113281 205.289062 C 301.65625 205.753906 300.179688 206.257812 298.65625 206.71875 C 297.140625 207.1875 295.597656 207.660156 294.03125 208.140625 C 292.464844 208.636719 290.855469 209.082031 289.238281 209.558594 C 287.609375 210.035156 285.964844 210.523438 284.285156 210.972656 C 282.605469 211.433594 280.90625 211.898438 279.1875 212.371094 C 277.457031 212.8125 275.703125 213.265625 273.9375 213.71875 C 266.847656 215.492188 259.402344 217.179688 251.675781 218.667969 C 243.949219 220.128906 235.949219 221.398438 227.757812 222.375 C 211.386719 224.363281 194.28125 224.984375 177.417969 223.925781 C 175.308594 223.757812 173.207031 223.597656 171.113281 223.429688 C 169.015625 223.222656 166.929688 222.976562 164.847656 222.75 C 164.324219 222.6875 163.804688 222.628906 163.285156 222.574219 C 162.765625 222.496094 162.25 222.421875 161.730469 222.347656 C 160.695312 222.195312 159.664062 222.042969 158.632812 221.890625 C 157.605469 221.738281 156.574219 221.59375 155.550781 221.429688 C 154.527344 221.242188 153.507812 221.054688 152.492188 220.867188 C 148.414062 220.171875 144.414062 219.222656 140.464844 218.308594 C 138.5 217.78125 136.554688 217.257812 134.625 216.734375 C 134.140625 216.605469 133.65625 216.484375 133.179688 216.339844 C 132.703125 216.1875 132.226562 216.039062 131.75 215.886719 C 130.800781 215.585938 129.855469 215.289062 128.914062 214.992188 C 127.972656 214.691406 127.035156 214.394531 126.101562 214.097656 C 125.183594 213.761719 124.265625 213.425781 123.351562 213.097656 C 122.4375 212.757812 121.53125 212.425781 120.628906 212.089844 C 119.730469 211.757812 118.816406 211.4375 117.957031 211.074219 C 117.085938 210.71875 116.21875 210.371094 115.359375 210.015625 C 114.496094 209.671875 113.65625 209.289062 112.8125 208.929688 C 111.125 208.214844 109.484375 207.453125 107.863281 206.707031 C 101.390625 203.703125 95.480469 200.484375 90.152344 197.296875 C 79.5 190.90625 71.242188 184.578125 65.652344 179.6875 C 54.453125 169.902344 46.554688 160.28125 41.066406 151.800781 C 35.574219 143.300781 32.421875 135.976562 30.75 130.128906 C 30.34375 128.65625 29.988281 127.300781 29.75 126.011719 C 29.511719 124.722656 29.335938 123.535156 29.222656 122.4375 C 29.042969 120.21875 29.085938 118.382812 29.351562 116.863281 C 29.890625 113.8125 31.144531 112.113281 32.765625 111.386719 C 34.382812 110.65625 36.515625 110.851562 39.105469 112.195312 C 40.40625 112.867188 41.867188 113.804688 43.433594 115.0625 C 44.238281 115.679688 45.074219 116.375 45.9375 117.152344 C 46.804688 117.933594 47.75 118.769531 48.703125 119.703125 C 52.566406 123.410156 57.210938 128.34375 63.15625 134.527344 C 69.105469 140.699219 76.421875 148.097656 85.941406 156.425781 C 90.695312 160.585938 97.449219 166.324219 106.1875 172.488281 C 110.558594 175.554688 115.410156 178.746094 120.753906 181.828125 C 122.089844 182.589844 123.441406 183.378906 124.839844 184.125 C 125.535156 184.503906 126.230469 184.898438 126.941406 185.269531 C 127.65625 185.640625 128.371094 186.011719 129.089844 186.382812 C 129.8125 186.773438 130.539062 187.105469 131.269531 187.460938 C 132 187.8125 132.738281 188.167969 133.476562 188.519531 C 134.21875 188.878906 134.960938 189.238281 135.710938 189.601562 C 136.480469 189.929688 137.25 190.261719 138.023438 190.589844 C 138.800781 190.925781 139.578125 191.261719 140.363281 191.597656 C 140.753906 191.765625 141.148438 191.9375 141.539062 192.109375 C 141.9375 192.273438 142.34375 192.417969 142.746094 192.570312 C 144.363281 193.191406 145.992188 193.820312 147.640625 194.449219 C 150.984375 195.585938 154.378906 196.792969 157.910156 197.785156 C 158.789062 198.046875 159.671875 198.308594 160.554688 198.574219 C 161.449219 198.808594 162.347656 199.042969 163.246094 199.277344 C 164.148438 199.511719 165.054688 199.746094 165.960938 199.984375 L 167.324219 200.335938 L 168.703125 200.644531 C 170.546875 201.058594 172.394531 201.488281 174.265625 201.886719 C 176.144531 202.25 178.03125 202.609375 179.921875 202.972656 C 195.125 205.65625 211.140625 206.988281 226.839844 206.96875 C 234.6875 206.984375 242.476562 206.703125 250.070312 206.214844 C 257.660156 205.703125 265.054688 204.972656 272.144531 204.117188 C 273.914062 203.890625 275.667969 203.671875 277.402344 203.453125 C 279.132812 203.207031 280.84375 202.960938 282.535156 202.722656 C 284.226562 202.492188 285.890625 202.21875 287.535156 201.960938 C 289.175781 201.691406 290.804688 201.460938 292.394531 201.175781 C 293.988281 200.898438 295.554688 200.625 297.097656 200.359375 C 298.644531 200.101562 300.152344 199.792969 301.640625 199.523438 C 304.617188 198.984375 307.472656 198.398438 310.210938 197.84375 C 321.152344 195.609375 330.078125 193.433594 336.277344 191.867188 C 339.382812 191.097656 341.789062 190.445312 343.4375 190.019531 C 345.078125 189.585938 345.949219 189.355469 345.949219 189.355469 " fill-opacity="1" fill-rule="nonzero"></path></g><path fill="#738fb4" d="M 230.640625 196.453125 C 230.640625 196.453125 227.882812 196.679688 222.984375 197.089844 C 221.753906 197.136719 220.386719 197.195312 218.898438 197.25 C 218.148438 197.28125 217.371094 197.308594 216.5625 197.34375 C 216.15625 197.355469 215.746094 197.382812 215.324219 197.382812 C 214.90625 197.382812 214.480469 197.378906 214.046875 197.378906 C 212.304688 197.375 210.449219 197.367188 208.484375 197.355469 C 208.242188 197.355469 207.996094 197.355469 207.742188 197.351562 C 207.496094 197.34375 207.246094 197.332031 206.992188 197.320312 C 206.492188 197.296875 205.980469 197.273438 205.464844 197.25 C 204.429688 197.203125 203.371094 197.15625 202.285156 197.109375 C 193.609375 196.632812 183.367188 195.488281 172.308594 193.199219 C 161.253906 190.917969 149.390625 187.507812 137.558594 182.753906 C 136.09375 182.125 134.625 181.492188 133.152344 180.859375 C 131.679688 180.214844 130.183594 179.613281 128.738281 178.882812 C 125.832031 177.46875 122.871094 176.105469 120.027344 174.496094 C 118.597656 173.710938 117.148438 172.949219 115.726562 172.140625 C 114.324219 171.292969 112.921875 170.441406 111.519531 169.59375 L 109.417969 168.3125 C 108.722656 167.859375 108.03125 167.410156 107.335938 166.957031 C 106.652344 166.488281 105.964844 166.019531 105.285156 165.558594 C 104.609375 165.082031 103.9375 164.601562 103.265625 164.121094 C 92.582031 156.390625 83.289062 147.285156 75.753906 137.816406 C 71.988281 133.078125 68.667969 128.238281 65.820312 123.445312 C 64.402344 121.039062 63.101562 118.652344 61.910156 116.292969 C 60.730469 113.929688 59.667969 111.59375 58.714844 109.3125 C 56.839844 104.738281 55.398438 100.382812 54.402344 96.386719 C 53.394531 92.398438 52.792969 88.796875 52.464844 85.757812 C 51.789062 79.679688 51.957031 73.976562 52.65625 68.847656 C 52.738281 68.207031 52.855469 67.574219 52.953125 66.949219 C 53.054688 66.328125 53.164062 65.710938 53.292969 65.105469 C 53.421875 64.503906 53.546875 63.910156 53.671875 63.320312 C 53.820312 62.734375 53.964844 62.160156 54.109375 61.589844 C 54.183594 61.308594 54.257812 61.027344 54.332031 60.746094 C 54.414062 60.46875 54.496094 60.191406 54.578125 59.917969 C 54.746094 59.371094 54.910156 58.832031 55.074219 58.300781 C 55.4375 57.25 55.785156 56.222656 56.175781 55.246094 C 57.71875 51.328125 59.511719 48.046875 61.332031 45.332031 C 61.800781 44.65625 62.230469 44 62.703125 43.394531 C 63.167969 42.789062 63.621094 42.210938 64.066406 41.65625 C 65 40.582031 65.863281 39.59375 66.753906 38.75 C 70.257812 35.34375 73.300781 33.707031 75.578125 33.039062 C 77.90625 32.417969 79.488281 32.757812 80.507812 33.664062 C 81.527344 34.5625 82.066406 36.121094 81.976562 38.328125 C 81.933594 40.5625 81.269531 43.460938 80.242188 47.230469 C 79.96875 48.160156 79.730469 49.171875 79.414062 50.21875 C 79.136719 51.269531 78.84375 52.382812 78.53125 53.566406 C 77.925781 55.921875 77.308594 58.53125 76.785156 61.445312 C 75.757812 67.285156 75.058594 74.367188 76.015625 83.207031 C 76.253906 85.414062 76.613281 88.074219 77.226562 91.121094 C 77.824219 94.171875 78.722656 97.597656 79.933594 101.328125 C 80.558594 103.1875 81.257812 105.121094 82.050781 107.113281 C 82.859375 109.101562 83.753906 111.148438 84.746094 113.234375 C 86.746094 117.40625 89.144531 121.746094 91.953125 126.109375 C 97.574219 134.828125 104.835938 143.691406 113.4375 151.523438 C 113.980469 152.007812 114.523438 152.496094 115.0625 152.976562 C 115.613281 153.457031 116.167969 153.933594 116.71875 154.40625 L 118.410156 155.808594 L 120.167969 157.167969 C 121.34375 158.082031 122.523438 159 123.703125 159.910156 C 124.90625 160.796875 126.144531 161.640625 127.367188 162.507812 C 129.789062 164.289062 132.359375 165.847656 134.886719 167.476562 C 136.136719 168.316406 137.457031 169.035156 138.75 169.796875 C 140.050781 170.550781 141.347656 171.304688 142.636719 172.054688 C 153.128906 177.816406 163.972656 182.457031 174.273438 185.96875 C 184.574219 189.488281 194.335938 191.878906 202.71875 193.429688 C 203.769531 193.617188 204.792969 193.800781 205.792969 193.972656 C 206.296875 194.0625 206.792969 194.148438 207.28125 194.234375 C 207.527344 194.277344 207.769531 194.320312 208.011719 194.363281 C 208.253906 194.398438 208.496094 194.433594 208.734375 194.464844 C 210.652344 194.722656 212.464844 194.96875 214.164062 195.195312 C 214.59375 195.253906 215.011719 195.308594 215.425781 195.363281 C 215.835938 195.417969 216.242188 195.445312 216.640625 195.484375 C 217.4375 195.558594 218.203125 195.628906 218.9375 195.695312 C 220.417969 195.835938 221.769531 195.957031 222.988281 196.074219 C 227.886719 196.316406 230.640625 196.453125 230.640625 196.453125 " fill-opacity="1" fill-rule="nonzero"></path><path fill="#b3d3e6" d="M 201.503906 182.488281 C 201.503906 182.488281 200.632812 182.449219 198.988281 182.375 C 198.578125 182.355469 198.117188 182.335938 197.605469 182.3125 C 197.097656 182.292969 196.546875 182.230469 195.945312 182.183594 C 194.75 182.070312 193.359375 182 191.8125 181.78125 C 191.035156 181.6875 190.222656 181.585938 189.359375 181.480469 C 188.503906 181.367188 187.609375 181.207031 186.671875 181.058594 C 184.792969 180.785156 182.789062 180.34375 180.617188 179.90625 C 176.304688 178.9375 171.453125 177.59375 166.234375 175.703125 C 161.019531 173.820312 155.445312 171.386719 149.726562 168.300781 C 143.996094 165.230469 138.171875 161.445312 132.40625 157.011719 C 126.632812 152.59375 121.027344 147.402344 115.710938 141.601562 C 115.046875 140.878906 114.40625 140.125 113.75 139.378906 C 113.425781 139.007812 113.097656 138.632812 112.773438 138.257812 C 112.445312 137.882812 112.136719 137.488281 111.820312 137.105469 C 111.1875 136.328125 110.554688 135.554688 109.921875 134.769531 C 109.308594 133.972656 108.695312 133.171875 108.082031 132.367188 L 107.164062 131.148438 L 106.28125 129.90625 C 105.695312 129.074219 105.097656 128.246094 104.519531 127.398438 C 103.398438 125.683594 102.234375 123.976562 101.183594 122.1875 L 100.375 120.855469 L 99.96875 120.1875 L 99.585938 119.511719 C 99.074219 118.597656 98.566406 117.6875 98.054688 116.777344 C 97.542969 115.863281 97.085938 114.917969 96.597656 113.988281 L 95.875 112.582031 C 95.636719 112.113281 95.421875 111.632812 95.195312 111.15625 C 94.746094 110.199219 94.296875 109.242188 93.847656 108.285156 C 93.425781 107.285156 93.003906 106.285156 92.582031 105.285156 C 92.171875 104.277344 91.800781 103.253906 91.414062 102.234375 C 91.214844 101.726562 91.039062 101.207031 90.867188 100.6875 L 90.351562 99.128906 C 87.667969 90.796875 86.089844 81.921875 86.160156 72.855469 C 86.25 63.792969 88.003906 54.585938 91.757812 46.070312 C 92.683594 43.941406 93.765625 41.894531 94.90625 39.90625 C 95.503906 38.925781 96.078125 37.929688 96.722656 36.992188 C 97.039062 36.523438 97.355469 36.046875 97.671875 35.578125 C 98.003906 35.121094 98.335938 34.664062 98.667969 34.207031 C 101.332031 30.5625 104.351562 27.324219 107.492188 24.414062 C 110.632812 21.5 113.945312 18.988281 117.28125 16.765625 C 120.621094 14.542969 124 12.625 127.347656 10.976562 C 134.050781 7.671875 140.605469 5.359375 146.734375 3.6875 C 149.8125 2.851562 152.722656 2.191406 155.707031 1.640625 C 156.441406 1.5 157.171875 1.394531 157.890625 1.28125 C 158.613281 1.171875 159.320312 1.042969 160.027344 0.960938 C 161.4375 0.796875 162.804688 0.609375 164.140625 0.515625 C 169.480469 0.046875 174.191406 0.101562 178.085938 0.378906 C 181.980469 0.664062 185.675781 1.171875 189.152344 1.859375 C 192.625 2.558594 195.878906 3.417969 198.925781 4.367188 C 204.996094 6.320312 210.21875 8.636719 214.671875 11.078125 C 219.121094 13.515625 222.828125 16.035156 225.921875 18.472656 C 229.015625 20.917969 231.503906 23.273438 233.503906 25.46875 C 235.492188 27.671875 237.003906 29.695312 238.121094 31.53125 C 238.671875 32.449219 239.144531 33.308594 239.515625 34.128906 C 239.886719 34.953125 240.175781 35.71875 240.386719 36.429688 C 241.222656 39.300781 240.855469 41.332031 239.761719 42.65625 C 238.660156 43.984375 236.738281 44.726562 233.894531 44.664062 C 231.042969 44.617188 227.261719 43.785156 222.339844 42.222656 C 217.40625 40.691406 211.328125 38.390625 203.722656 35.976562 C 199.925781 34.765625 195.734375 33.582031 191.121094 32.523438 C 188.8125 32.019531 186.398438 31.546875 183.871094 31.140625 C 181.34375 30.746094 178.703125 30.441406 175.949219 30.246094 C 173.191406 30.046875 169.890625 29.910156 166.125 30.050781 C 165.183594 30.0625 164.21875 30.15625 163.21875 30.207031 C 162.71875 30.230469 162.214844 30.300781 161.703125 30.34375 C 161.1875 30.398438 160.667969 30.429688 160.144531 30.5 C 158.085938 30.742188 155.726562 31.101562 153.355469 31.566406 C 148.601562 32.484375 143.527344 33.824219 138.457031 35.777344 C 135.921875 36.75 133.402344 37.890625 130.941406 39.203125 C 128.484375 40.515625 126.070312 41.992188 123.816406 43.691406 C 121.5625 45.386719 119.40625 47.253906 117.492188 49.363281 L 116.769531 50.152344 L 116.082031 50.972656 C 115.605469 51.511719 115.199219 52.097656 114.746094 52.660156 C 113.90625 53.824219 113.078125 55.019531 112.359375 56.289062 C 112.179688 56.605469 111.976562 56.914062 111.808594 57.242188 L 111.296875 58.222656 C 111.113281 58.542969 110.964844 58.890625 110.808594 59.234375 L 110.332031 60.269531 C 109.988281 60.945312 109.746094 61.675781 109.457031 62.390625 C 109.320312 62.753906 109.167969 63.109375 109.039062 63.472656 L 108.679688 64.589844 C 107.707031 67.570312 107.007812 70.734375 106.59375 74.015625 C 105.777344 80.589844 106.148438 87.617188 107.511719 94.554688 L 107.78125 95.855469 C 107.867188 96.292969 107.957031 96.726562 108.070312 97.152344 C 108.289062 98.015625 108.488281 98.878906 108.722656 99.738281 L 109.464844 102.304688 C 109.753906 103.179688 110.042969 104.050781 110.328125 104.917969 C 110.476562 105.351562 110.609375 105.792969 110.769531 106.21875 L 111.25 107.507812 C 111.578125 108.363281 111.871094 109.234375 112.222656 110.078125 C 112.570312 110.925781 112.921875 111.773438 113.269531 112.621094 L 113.53125 113.253906 L 113.816406 113.882812 L 114.382812 115.128906 C 115.113281 116.808594 115.960938 118.429688 116.761719 120.070312 C 117.179688 120.878906 117.621094 121.671875 118.050781 122.476562 L 118.695312 123.675781 L 119.378906 124.851562 C 119.839844 125.640625 120.296875 126.421875 120.753906 127.199219 C 121.234375 127.964844 121.714844 128.726562 122.195312 129.488281 C 122.4375 129.871094 122.667969 130.257812 122.921875 130.628906 C 123.171875 131 123.421875 131.367188 123.675781 131.742188 C 124.179688 132.480469 124.667969 133.230469 125.1875 133.957031 C 129.328125 139.761719 133.839844 145.148438 138.640625 149.882812 C 143.429688 154.628906 148.398438 158.84375 153.398438 162.40625 C 158.390625 165.984375 163.367188 168.972656 168.101562 171.414062 C 172.839844 173.859375 177.335938 175.765625 181.386719 177.253906 C 183.425781 177.945312 185.328125 178.640625 187.117188 179.148438 C 188.011719 179.40625 188.863281 179.6875 189.6875 179.90625 C 190.511719 180.121094 191.300781 180.324219 192.046875 180.519531 C 193.535156 180.933594 194.886719 181.183594 196.050781 181.453125 C 196.636719 181.578125 197.175781 181.710938 197.671875 181.800781 C 198.171875 181.886719 198.621094 181.96875 199.027344 182.042969 C 200.648438 182.332031 201.503906 182.488281 201.503906 182.488281 " fill-opacity="1" fill-rule="nonzero"></path><g clip-path="url(#719493ecda)"><path fill="#738fb4" d="M 345.949219 189.355469 C 345.949219 189.355469 345.117188 189.699219 343.546875 190.347656 C 341.972656 190.988281 339.667969 191.957031 336.683594 193.128906 C 330.734375 195.5 322.136719 198.839844 311.480469 202.496094 C 308.816406 203.40625 306.027344 204.363281 303.113281 205.289062 C 301.65625 205.753906 300.179688 206.257812 298.65625 206.71875 C 297.140625 207.1875 295.597656 207.660156 294.03125 208.140625 C 292.464844 208.636719 290.855469 209.082031 289.238281 209.558594 C 287.609375 210.035156 285.964844 210.523438 284.285156 210.972656 C 282.605469 211.433594 280.90625 211.898438 279.1875 212.371094 C 277.457031 212.8125 275.703125 213.265625 273.9375 213.71875 C 266.847656 215.492188 259.402344 217.179688 251.675781 218.667969 C 243.949219 220.128906 235.949219 221.398438 227.757812 222.375 C 211.386719 224.363281 194.28125 224.984375 177.417969 223.925781 C 175.308594 223.757812 173.207031 223.597656 171.113281 223.429688 C 169.015625 223.222656 166.929688 222.976562 164.847656 222.75 C 164.324219 222.6875 163.804688 222.628906 163.285156 222.574219 C 162.765625 222.496094 162.25 222.421875 161.730469 222.347656 C 160.695312 222.195312 159.664062 222.042969 158.632812 221.890625 C 157.605469 221.738281 156.574219 221.59375 155.550781 221.429688 C 154.527344 221.242188 153.507812 221.054688 152.492188 220.867188 C 148.414062 220.171875 144.414062 219.222656 140.464844 218.308594 C 138.5 217.78125 136.554688 217.257812 134.625 216.734375 C 134.140625 216.605469 133.65625 216.484375 133.179688 216.339844 C 132.703125 216.1875 132.226562 216.039062 131.75 215.886719 C 130.800781 215.585938 129.855469 215.289062 128.914062 214.992188 C 127.972656 214.691406 127.035156 214.394531 126.101562 214.097656 C 125.183594 213.761719 124.265625 213.425781 123.351562 213.097656 C 122.4375 212.757812 121.53125 212.425781 120.628906 212.089844 C 119.730469 211.757812 118.816406 211.4375 117.957031 211.074219 C 117.085938 210.71875 116.21875 210.371094 115.359375 210.015625 C 114.496094 209.671875 113.65625 209.289062 112.8125 208.929688 C 111.125 208.214844 109.484375 207.453125 107.863281 206.707031 C 101.390625 203.703125 95.480469 200.484375 90.152344 197.296875 C 79.5 190.90625 71.242188 184.578125 65.652344 179.6875 C 54.453125 169.902344 46.554688 160.28125 41.066406 151.800781 C 35.574219 143.300781 32.421875 135.976562 30.75 130.128906 C 30.34375 128.65625 29.988281 127.300781 29.75 126.011719 C 29.511719 124.722656 29.335938 123.535156 29.222656 122.4375 C 29.042969 120.21875 29.085938 118.382812 29.351562 116.863281 C 29.890625 113.8125 31.144531 112.113281 32.765625 111.386719 C 34.382812 110.65625 36.515625 110.851562 39.105469 112.195312 C 40.40625 112.867188 41.867188 113.804688 43.433594 115.0625 C 44.238281 115.679688 45.074219 116.375 45.9375 117.152344 C 46.804688 117.933594 47.75 118.769531 48.703125 119.703125 C 52.566406 123.410156 57.210938 128.34375 63.15625 134.527344 C 69.105469 140.699219 76.421875 148.097656 85.941406 156.425781 C 90.695312 160.585938 97.449219 166.324219 106.1875 172.488281 C 110.558594 175.554688 115.410156 178.746094 120.753906 181.828125 C 122.089844 182.589844 123.441406 183.378906 124.839844 184.125 C 125.535156 184.503906 126.230469 184.898438 126.941406 185.269531 C 127.65625 185.640625 128.371094 186.011719 129.089844 186.382812 C 129.8125 186.773438 130.539062 187.105469 131.269531 187.460938 C 132 187.8125 132.738281 188.167969 133.476562 188.519531 C 134.21875 188.878906 134.960938 189.238281 135.710938 189.601562 C 136.480469 189.929688 137.25 190.261719 138.023438 190.589844 C 138.800781 190.925781 139.578125 191.261719 140.363281 191.597656 C 140.753906 191.765625 141.148438 191.9375 141.539062 192.109375 C 141.9375 192.273438 142.34375 192.417969 142.746094 192.570312 C 144.363281 193.191406 145.992188 193.820312 147.640625 194.449219 C 150.984375 195.585938 154.378906 196.792969 157.910156 197.785156 C 158.789062 198.046875 159.671875 198.308594 160.554688 198.574219 C 161.449219 198.808594 162.347656 199.042969 163.246094 199.277344 C 164.148438 199.511719 165.054688 199.746094 165.960938 199.984375 L 167.324219 200.335938 L 168.703125 200.644531 C 170.546875 201.058594 172.394531 201.488281 174.265625 201.886719 C 176.144531 202.25 178.03125 202.609375 179.921875 202.972656 C 195.125 205.65625 211.140625 206.988281 226.839844 206.96875 C 234.6875 206.984375 242.476562 206.703125 250.070312 206.214844 C 257.660156 205.703125 265.054688 204.972656 272.144531 204.117188 C 273.914062 203.890625 275.667969 203.671875 277.402344 203.453125 C 279.132812 203.207031 280.84375 202.960938 282.535156 202.722656 C 284.226562 202.492188 285.890625 202.21875 287.535156 201.960938 C 289.175781 201.691406 290.804688 201.460938 292.394531 201.175781 C 293.988281 200.898438 295.554688 200.625 297.097656 200.359375 C 298.644531 200.101562 300.152344 199.792969 301.640625 199.523438 C 304.617188 198.984375 307.472656 198.398438 310.210938 197.84375 C 321.152344 195.609375 330.078125 193.433594 336.277344 191.867188 C 339.382812 191.097656 341.789062 190.445312 343.4375 190.019531 C 345.078125 189.585938 345.949219 189.355469 345.949219 189.355469 " fill-opacity="1" fill-rule="nonzero"></path></g><path fill="#738fb4" d="M 230.640625 196.453125 C 230.640625 196.453125 227.882812 196.679688 222.984375 197.089844 C 221.753906 197.136719 220.386719 197.195312 218.898438 197.25 C 218.148438 197.28125 217.371094 197.308594 216.5625 197.34375 C 216.15625 197.355469 215.746094 197.382812 215.324219 197.382812 C 214.90625 197.382812 214.480469 197.378906 214.046875 197.378906 C 212.304688 197.375 210.449219 197.367188 208.484375 197.355469 C 208.242188 197.355469 207.996094 197.355469 207.742188 197.351562 C 207.496094 197.34375 207.246094 197.332031 206.992188 197.320312 C 206.492188 197.296875 205.980469 197.273438 205.464844 197.25 C 204.429688 197.203125 203.371094 197.15625 202.285156 197.109375 C 193.609375 196.632812 183.367188 195.488281 172.308594 193.199219 C 161.253906 190.917969 149.390625 187.507812 137.558594 182.753906 C 136.09375 182.125 134.625 181.492188 133.152344 180.859375 C 131.679688 180.214844 130.183594 179.613281 128.738281 178.882812 C 125.832031 177.46875 122.871094 176.105469 120.027344 174.496094 C 118.597656 173.710938 117.148438 172.949219 115.726562 172.140625 C 114.324219 171.292969 112.921875 170.441406 111.519531 169.59375 L 109.417969 168.3125 C 108.722656 167.859375 108.03125 167.410156 107.335938 166.957031 C 106.652344 166.488281 105.964844 166.019531 105.285156 165.558594 C 104.609375 165.082031 103.9375 164.601562 103.265625 164.121094 C 92.582031 156.390625 83.289062 147.285156 75.753906 137.816406 C 71.988281 133.078125 68.667969 128.238281 65.820312 123.445312 C 64.402344 121.039062 63.101562 118.652344 61.910156 116.292969 C 60.730469 113.929688 59.667969 111.59375 58.714844 109.3125 C 56.839844 104.738281 55.398438 100.382812 54.402344 96.386719 C 53.394531 92.398438 52.792969 88.796875 52.464844 85.757812 C 51.789062 79.679688 51.957031 73.976562 52.65625 68.847656 C 52.738281 68.207031 52.855469 67.574219 52.953125 66.949219 C 53.054688 66.328125 53.164062 65.710938 53.292969 65.105469 C 53.421875 64.503906 53.546875 63.910156 53.671875 63.320312 C 53.820312 62.734375 53.964844 62.160156 54.109375 61.589844 C 54.183594 61.308594 54.257812 61.027344 54.332031 60.746094 C 54.414062 60.46875 54.496094 60.191406 54.578125 59.917969 C 54.746094 59.371094 54.910156 58.832031 55.074219 58.300781 C 55.4375 57.25 55.785156 56.222656 56.175781 55.246094 C 57.71875 51.328125 59.511719 48.046875 61.332031 45.332031 C 61.800781 44.65625 62.230469 44 62.703125 43.394531 C 63.167969 42.789062 63.621094 42.210938 64.066406 41.65625 C 65 40.582031 65.863281 39.59375 66.753906 38.75 C 70.257812 35.34375 73.300781 33.707031 75.578125 33.039062 C 77.90625 32.417969 79.488281 32.757812 80.507812 33.664062 C 81.527344 34.5625 82.066406 36.121094 81.976562 38.328125 C 81.933594 40.5625 81.269531 43.460938 80.242188 47.230469 C 79.96875 48.160156 79.730469 49.171875 79.414062 50.21875 C 79.136719 51.269531 78.84375 52.382812 78.53125 53.566406 C 77.925781 55.921875 77.308594 58.53125 76.785156 61.445312 C 75.757812 67.285156 75.058594 74.367188 76.015625 83.207031 C 76.253906 85.414062 76.613281 88.074219 77.226562 91.121094 C 77.824219 94.171875 78.722656 97.597656 79.933594 101.328125 C 80.558594 103.1875 81.257812 105.121094 82.050781 107.113281 C 82.859375 109.101562 83.753906 111.148438 84.746094 113.234375 C 86.746094 117.40625 89.144531 121.746094 91.953125 126.109375 C 97.574219 134.828125 104.835938 143.691406 113.4375 151.523438 C 113.980469 152.007812 114.523438 152.496094 115.0625 152.976562 C 115.613281 153.457031 116.167969 153.933594 116.71875 154.40625 L 118.410156 155.808594 L 120.167969 157.167969 C 121.34375 158.082031 122.523438 159 123.703125 159.910156 C 124.90625 160.796875 126.144531 161.640625 127.367188 162.507812 C 129.789062 164.289062 132.359375 165.847656 134.886719 167.476562 C 136.136719 168.316406 137.457031 169.035156 138.75 169.796875 C 140.050781 170.550781 141.347656 171.304688 142.636719 172.054688 C 153.128906 177.816406 163.972656 182.457031 174.273438 185.96875 C 184.574219 189.488281 194.335938 191.878906 202.71875 193.429688 C 203.769531 193.617188 204.792969 193.800781 205.792969 193.972656 C 206.296875 194.0625 206.792969 194.148438 207.28125 194.234375 C 207.527344 194.277344 207.769531 194.320312 208.011719 194.363281 C 208.253906 194.398438 208.496094 194.433594 208.734375 194.464844 C 210.652344 194.722656 212.464844 194.96875 214.164062 195.195312 C 214.59375 195.253906 215.011719 195.308594 215.425781 195.363281 C 215.835938 195.417969 216.242188 195.445312 216.640625 195.484375 C 217.4375 195.558594 218.203125 195.628906 218.9375 195.695312 C 220.417969 195.835938 221.769531 195.957031 222.988281 196.074219 C 227.886719 196.316406 230.640625 196.453125 230.640625 196.453125 " fill-opacity="1" fill-rule="nonzero"></path><path fill="#b3d3e6" d="M 201.503906 182.488281 C 201.503906 182.488281 200.632812 182.449219 198.988281 182.375 C 198.578125 182.355469 198.117188 182.335938 197.605469 182.3125 C 197.097656 182.292969 196.546875 182.230469 195.945312 182.183594 C 194.75 182.070312 193.359375 182 191.8125 181.78125 C 191.035156 181.6875 190.222656 181.585938 189.359375 181.480469 C 188.503906 181.367188 187.609375 181.207031 186.671875 181.058594 C 184.792969 180.785156 182.789062 180.34375 180.617188 179.90625 C 176.304688 178.9375 171.453125 177.59375 166.234375 175.703125 C 161.019531 173.820312 155.445312 171.386719 149.726562 168.300781 C 143.996094 165.230469 138.171875 161.445312 132.40625 157.011719 C 126.632812 152.59375 121.027344 147.402344 115.710938 141.601562 C 115.046875 140.878906 114.40625 140.125 113.75 139.378906 C 113.425781 139.007812 113.097656 138.632812 112.773438 138.257812 C 112.445312 137.882812 112.136719 137.488281 111.820312 137.105469 C 111.1875 136.328125 110.554688 135.554688 109.921875 134.769531 C 109.308594 133.972656 108.695312 133.171875 108.082031 132.367188 L 107.164062 131.148438 L 106.28125 129.90625 C 105.695312 129.074219 105.097656 128.246094 104.519531 127.398438 C 103.398438 125.683594 102.234375 123.976562 101.183594 122.1875 L 100.375 120.855469 L 99.96875 120.1875 L 99.585938 119.511719 C 99.074219 118.597656 98.566406 117.6875 98.054688 116.777344 C 97.542969 115.863281 97.085938 114.917969 96.597656 113.988281 L 95.875 112.582031 C 95.636719 112.113281 95.421875 111.632812 95.195312 111.15625 C 94.746094 110.199219 94.296875 109.242188 93.847656 108.285156 C 93.425781 107.285156 93.003906 106.285156 92.582031 105.285156 C 92.171875 104.277344 91.800781 103.253906 91.414062 102.234375 C 91.214844 101.726562 91.039062 101.207031 90.867188 100.6875 L 90.351562 99.128906 C 87.667969 90.796875 86.089844 81.921875 86.160156 72.855469 C 86.25 63.792969 88.003906 54.585938 91.757812 46.070312 C 92.683594 43.941406 93.765625 41.894531 94.90625 39.90625 C 95.503906 38.925781 96.078125 37.929688 96.722656 36.992188 C 97.039062 36.523438 97.355469 36.046875 97.671875 35.578125 C 98.003906 35.121094 98.335938 34.664062 98.667969 34.207031 C 101.332031 30.5625 104.351562 27.324219 107.492188 24.414062 C 110.632812 21.5 113.945312 18.988281 117.28125 16.765625 C 120.621094 14.542969 124 12.625 127.347656 10.976562 C 134.050781 7.671875 140.605469 5.359375 146.734375 3.6875 C 149.8125 2.851562 152.722656 2.191406 155.707031 1.640625 C 156.441406 1.5 157.171875 1.394531 157.890625 1.28125 C 158.613281 1.171875 159.320312 1.042969 160.027344 0.960938 C 161.4375 0.796875 162.804688 0.609375 164.140625 0.515625 C 169.480469 0.046875 174.191406 0.101562 178.085938 0.378906 C 181.980469 0.664062 185.675781 1.171875 189.152344 1.859375 C 192.625 2.558594 195.878906 3.417969 198.925781 4.367188 C 204.996094 6.320312 210.21875 8.636719 214.671875 11.078125 C 219.121094 13.515625 222.828125 16.035156 225.921875 18.472656 C 229.015625 20.917969 231.503906 23.273438 233.503906 25.46875 C 235.492188 27.671875 237.003906 29.695312 238.121094 31.53125 C 238.671875 32.449219 239.144531 33.308594 239.515625 34.128906 C 239.886719 34.953125 240.175781 35.71875 240.386719 36.429688 C 241.222656 39.300781 240.855469 41.332031 239.761719 42.65625 C 238.660156 43.984375 236.738281 44.726562 233.894531 44.664062 C 231.042969 44.617188 227.261719 43.785156 222.339844 42.222656 C 217.40625 40.691406 211.328125 38.390625 203.722656 35.976562 C 199.925781 34.765625 195.734375 33.582031 191.121094 32.523438 C 188.8125 32.019531 186.398438 31.546875 183.871094 31.140625 C 181.34375 30.746094 178.703125 30.441406 175.949219 30.246094 C 173.191406 30.046875 169.890625 29.910156 166.125 30.050781 C 165.183594 30.0625 164.21875 30.15625 163.21875 30.207031 C 162.71875 30.230469 162.214844 30.300781 161.703125 30.34375 C 161.1875 30.398438 160.667969 30.429688 160.144531 30.5 C 158.085938 30.742188 155.726562 31.101562 153.355469 31.566406 C 148.601562 32.484375 143.527344 33.824219 138.457031 35.777344 C 135.921875 36.75 133.402344 37.890625 130.941406 39.203125 C 128.484375 40.515625 126.070312 41.992188 123.816406 43.691406 C 121.5625 45.386719 119.40625 47.253906 117.492188 49.363281 L 116.769531 50.152344 L 116.082031 50.972656 C 115.605469 51.511719 115.199219 52.097656 114.746094 52.660156 C 113.90625 53.824219 113.078125 55.019531 112.359375 56.289062 C 112.179688 56.605469 111.976562 56.914062 111.808594 57.242188 L 111.296875 58.222656 C 111.113281 58.542969 110.964844 58.890625 110.808594 59.234375 L 110.332031 60.269531 C 109.988281 60.945312 109.746094 61.675781 109.457031 62.390625 C 109.320312 62.753906 109.167969 63.109375 109.039062 63.472656 L 108.679688 64.589844 C 107.707031 67.570312 107.007812 70.734375 106.59375 74.015625 C 105.777344 80.589844 106.148438 87.617188 107.511719 94.554688 L 107.78125 95.855469 C 107.867188 96.292969 107.957031 96.726562 108.070312 97.152344 C 108.289062 98.015625 108.488281 98.878906 108.722656 99.738281 L 109.464844 102.304688 C 109.753906 103.179688 110.042969 104.050781 110.328125 104.917969 C 110.476562 105.351562 110.609375 105.792969 110.769531 106.21875 L 111.25 107.507812 C 111.578125 108.363281 111.871094 109.234375 112.222656 110.078125 C 112.570312 110.925781 112.921875 111.773438 113.269531 112.621094 L 113.53125 113.253906 L 113.816406 113.882812 L 114.382812 115.128906 C 115.113281 116.808594 115.960938 118.429688 116.761719 120.070312 C 117.179688 120.878906 117.621094 121.671875 118.050781 122.476562 L 118.695312 123.675781 L 119.378906 124.851562 C 119.839844 125.640625 120.296875 126.421875 120.753906 127.199219 C 121.234375 127.964844 121.714844 128.726562 122.195312 129.488281 C 122.4375 129.871094 122.667969 130.257812 122.921875 130.628906 C 123.171875 131 123.421875 131.367188 123.675781 131.742188 C 124.179688 132.480469 124.667969 133.230469 125.1875 133.957031 C 129.328125 139.761719 133.839844 145.148438 138.640625 149.882812 C 143.429688 154.628906 148.398438 158.84375 153.398438 162.40625 C 158.390625 165.984375 163.367188 168.972656 168.101562 171.414062 C 172.839844 173.859375 177.335938 175.765625 181.386719 177.253906 C 183.425781 177.945312 185.328125 178.640625 187.117188 179.148438 C 188.011719 179.40625 188.863281 179.6875 189.6875 179.90625 C 190.511719 180.121094 191.300781 180.324219 192.046875 180.519531 C 193.535156 180.933594 194.886719 181.183594 196.050781 181.453125 C 196.636719 181.578125 197.175781 181.710938 197.671875 181.800781 C 198.171875 181.886719 198.621094 181.96875 199.027344 182.042969 C 200.648438 182.332031 201.503906 182.488281 201.503906 182.488281 " fill-opacity="1" fill-rule="nonzero"></path></svg><style>@media (prefers-color-scheme: light) { :root { filter: none; } }
@media (prefers-color-scheme: dark) { :root { filter: none; } }
</style></svg>