<svg xmlns="http://www.w3.org/2000/svg" xmlns:xlink="http://www.w3.org/1999/xlink" width="500" zoomAndPan="magnify" viewBox="0 0 375 374.999991" height="500" preserveAspectRatio="xMidYMid meet" version="1.0"><defs><g/><clipPath id="8decb71c17"><path d="M 91.613281 162 L 248.363281 162 L 248.363281 219 L 91.613281 219 Z M 91.613281 162 " clip-rule="nonzero"/></clipPath><clipPath id="22878bee2f"><path d="M 119 107.671875 L 197 107.671875 L 197 199 L 119 199 Z M 119 107.671875 " clip-rule="nonzero"/></clipPath></defs><g fill="#ffffff" fill-opacity="1"><g transform="translate(154.377635, 147.663689)"><g><path d="M 31 -22 L 35.078125 -22 C 36.796875 -22 38.15625 -23.234375 38.15625 -24.765625 C 38.15625 -25.953125 37.40625 -26.640625 35.953125 -26.6875 L 22.125 -26.6875 C 20.40625 -26.6875 19 -25.4375 19 -23.921875 C 19 -22.71875 19.796875 -22.046875 21.203125 -22 L 25.515625 -22 L 18.765625 -5.3125 C 18.28125 -4.125 17.71875 -2.875 17.15625 -1.796875 C 16.28125 0 15.59375 1.078125 14.875 1.84375 C 13.640625 3.203125 12.359375 3.84375 10.875 3.84375 C 8.234375 3.84375 6.59375 2.078125 6.59375 -0.6875 C 6.59375 -5.515625 10.765625 -9.4375 16.15625 -9.765625 C 19.28125 -9.921875 20.40625 -10.640625 20.40625 -12.40625 C 20.40625 -13.953125 19.046875 -14.84375 16.71875 -14.84375 C 8.28125 -14.84375 1.078125 -8.15625 1.078125 -0.234375 C 1.078125 5.28125 4.84375 9 10.4375 9 C 15.71875 9 19.515625 5.84375 22.40625 -0.921875 C 22.796875 -1.875 23.59375 -3.71875 24.234375 -5.3125 Z M 31 -22 "/></g></g></g><g fill="#ffffff" fill-opacity="1"><g transform="translate(185.854505, 147.663689)"><g><path d="M 10.3125 -14.078125 L 14.046875 -23.234375 L 14.234375 -23.765625 C 14.40625 -24.203125 14.515625 -24.6875 14.515625 -25.078125 C 14.515625 -26.125 13.6875 -26.921875 12.5625 -26.921875 C 11.15625 -26.921875 10.3125 -26.15625 9.515625 -24.234375 L 1.046875 -3.28125 L 0.796875 -2.765625 C 0.640625 -2.3125 0.515625 -1.84375 0.515625 -1.4375 C 0.515625 -0.40625 1.359375 0.359375 2.484375 0.359375 C 3.71875 0.359375 4.71875 -0.359375 5.3125 -1.765625 L 5.515625 -2.28125 L 7.6875 -7.6875 C 8.640625 -9.921875 9.71875 -11.046875 11.078125 -11.046875 C 11.921875 -11.046875 12.5625 -10.59375 12.5625 -9.921875 C 12.5625 -9.59375 12.484375 -9.28125 12.203125 -8.6875 L 10.4375 -4.28125 L 10.203125 -3.765625 C 10.078125 -3.40625 10 -3 10 -2.5625 C 10 -1.078125 11.203125 0 12.921875 0 L 17.3125 0 C 18.875 0 20.15625 -1.125 20.15625 -2.515625 C 20.15625 -3.640625 19.4375 -4.234375 18.15625 -4.28125 L 15.4375 -4.28125 L 17.515625 -9.359375 C 17.765625 -10 17.953125 -10.921875 17.953125 -11.5625 C 17.953125 -13.640625 16.15625 -15.203125 13.71875 -15.203125 C 12.5625 -15.203125 12.046875 -15.046875 10.3125 -14.078125 Z M 10.3125 -14.078125 "/></g></g></g><g fill="#ffffff" fill-opacity="1"><g transform="translate(206.252475, 147.663689)"><g><path d="M 5.203125 -5.71875 L 9.125 -5.71875 C 10.765625 -5.71875 11.3125 -5.796875 12.203125 -6.203125 C 13.796875 -6.875 14.796875 -8.484375 14.796875 -10.3125 C 14.796875 -13.234375 12.5625 -15.203125 9.203125 -15.203125 C 4.484375 -15.203125 0.515625 -11.046875 0.515625 -6.046875 C 0.515625 -3.84375 1.3125 -2.125 2.796875 -1 C 3.84375 -0.234375 4.875 0 6.84375 0 L 12.84375 0 C 14.40625 0 15.6875 -1.125 15.6875 -2.515625 C 15.6875 -3.640625 14.953125 -4.234375 13.6875 -4.28125 L 7.40625 -4.28125 C 5.953125 -4.28125 5.203125 -4.765625 5.203125 -5.71875 Z M 6.125 -9.28125 C 6.796875 -10.5625 7.796875 -11.234375 9 -11.234375 C 9.765625 -11.234375 10.3125 -10.765625 10.3125 -10.15625 C 10.3125 -9.5625 9.71875 -9.28125 8.28125 -9.28125 Z M 6.125 -9.28125 "/></g></g></g><g fill="#ffffff" fill-opacity="1"><g transform="translate(154.377635, 191.913686)"><g><path d="M 24.484375 -12.078125 L 33.84375 -21.796875 L 34.28125 -22.28125 C 35.046875 -23.078125 35.4375 -23.875 35.4375 -24.59375 C 35.4375 -25.921875 34.515625 -26.84375 33.15625 -26.84375 C 32.3125 -26.84375 31.515625 -26.4375 30.640625 -25.515625 L 30.203125 -25.078125 L 19.953125 -14.3125 L 20.640625 -16 C 21.3125 -17.640625 21.640625 -19.203125 21.640625 -20.5625 C 21.640625 -24.234375 18.40625 -27.125 14.28125 -27.125 C 8.40625 -27.125 3.4375 -22.203125 3.4375 -16.359375 C 3.4375 -12.484375 6.15625 -9.359375 9.515625 -9.359375 C 11.078125 -9.359375 12.359375 -10.484375 12.359375 -11.875 C 12.359375 -12.59375 11.953125 -13.28125 11.4375 -13.484375 L 10.28125 -13.953125 C 9.125 -14.4375 8.40625 -15.4375 8.40625 -16.6875 C 8.40625 -19.59375 10.84375 -22.3125 13.4375 -22.3125 C 15.046875 -22.3125 16.359375 -21.046875 16.359375 -19.59375 C 16.359375 -19.234375 16.234375 -18.71875 15.953125 -17.953125 L 15.203125 -16 L 10.125 -3.484375 L 9.921875 -2.921875 C 9.71875 -2.4375 9.59375 -1.875 9.59375 -1.4375 C 9.59375 -0.3125 10.515625 0.5625 11.765625 0.5625 C 13.3125 0.5625 14.234375 -0.234375 15.125 -2.40625 L 19.125 -12.3125 L 24.3125 1.640625 C 25.4375 4.6875 26.4375 5.3125 29.875 5.3125 L 36.875 5.3125 C 38.640625 5.3125 40.046875 4.078125 40.046875 2.515625 C 40.046875 1.28125 39.234375 0.59375 37.796875 0.5625 L 30.953125 0.5625 C 29.640625 0.5625 29 0.15625 28.59375 -0.875 Z M 24.484375 -12.078125 "/></g></g></g><g fill="#ffffff" fill-opacity="1"><g transform="translate(189.094189, 191.913686)"><g><path d="M 5.4375 -10.640625 L 7.484375 -10.640625 C 5.28125 -8.203125 4.484375 -6.6875 4.484375 -4.84375 C 4.484375 -2.59375 5.6875 -0.765625 7.4375 -0.28125 C 8.078125 -0.125 8.640625 0 8.921875 0 L 13.234375 0 C 14.796875 0 16.046875 -1.125 16.046875 -2.515625 C 16.046875 -3.640625 15.3125 -4.234375 14.046875 -4.28125 L 11.125 -4.28125 C 9.953125 -4.28125 9.3125 -4.875 9.3125 -5.921875 C 9.3125 -6.484375 9.5625 -7.046875 10.28125 -8.078125 C 10.875 -8.953125 11.203125 -9.3125 12.40625 -10.484375 L 12.640625 -10.640625 C 13.765625 -10.6875 14.125 -10.71875 14.484375 -10.921875 C 15.203125 -11.234375 15.875 -12.28125 15.875 -13.125 C 15.875 -14.28125 15.125 -14.921875 13.796875 -14.921875 L 8.71875 -14.921875 C 7.515625 -14.921875 7.40625 -15 7.234375 -15.640625 L 7.078125 -16.234375 C 6.875 -17.125 6.234375 -17.59375 5.28125 -17.59375 C 4.234375 -17.59375 3.640625 -17.078125 3.046875 -15.640625 L 0.84375 -10.203125 C 0.484375 -9.28125 0.40625 -9.046875 0.40625 -8.640625 C 0.40625 -7.640625 1.3125 -6.84375 2.40625 -6.84375 C 3.484375 -6.84375 4.15625 -7.4375 4.796875 -9.046875 Z M 5.4375 -10.640625 "/></g></g></g><g fill="#ffffff" fill-opacity="1"><g transform="translate(205.53255, 191.913686)"><g><path d="M 7.234375 0 C 9.6875 0 10.84375 -0.203125 12 -0.953125 C 14.359375 -2.484375 16.046875 -5.765625 16.046875 -8.84375 C 16.046875 -12.5625 13.3125 -15.203125 9.4375 -15.203125 C 4.6875 -15.203125 0.515625 -10.953125 0.515625 -6.125 C 0.515625 -3.921875 1.515625 -1.875 3.15625 -0.765625 C 4.046875 -0.15625 4.921875 0 7.234375 0 Z M 11.40625 -8.640625 C 11.40625 -7.203125 10.59375 -5.484375 9.59375 -4.71875 C 9.125 -4.3125 8.6875 -4.234375 7.71875 -4.234375 C 6.046875 -4.234375 5.234375 -4.921875 5.234375 -6.4375 C 5.234375 -8.796875 7.125 -11.046875 9.125 -11.046875 C 10.4375 -11.046875 11.40625 -10.046875 11.40625 -8.640625 Z M 11.40625 -8.640625 "/></g></g></g><g fill="#ffffff" fill-opacity="1"><g transform="translate(222.090903, 191.913686)"><g><path d="M 7.3125 -9.59375 L 8.203125 -7.921875 C 8.5625 -7.15625 8.6875 -6.796875 8.6875 -6.28125 C 8.6875 -4.921875 7.796875 -4.28125 5.953125 -4.28125 L 3.234375 -4.28125 C 1.6875 -4.28125 0.40625 -3.125 0.40625 -1.765625 C 0.40625 -0.640625 1.125 -0.046875 2.40625 0 L 7.234375 0 C 7.4375 0 7.84375 -0.046875 8.4375 -0.203125 C 9.59375 -0.4375 10.078125 -0.59375 10.59375 -0.921875 C 12.28125 -2 13.359375 -3.921875 13.359375 -5.875 C 13.359375 -7.28125 12.796875 -8.71875 11.6875 -10.3125 L 10.5625 -11.875 C 9.921875 -12.765625 9.640625 -13.515625 9.640625 -14.359375 C 9.640625 -14.59375 9.6875 -14.875 9.71875 -15.15625 C 9.796875 -15.515625 9.84375 -15.796875 9.84375 -15.953125 C 9.84375 -16.84375 8.953125 -17.5625 7.953125 -17.5625 C 6.953125 -17.5625 6.234375 -17 5.59375 -15.71875 L 3 -10.4375 C 2.640625 -9.71875 2.4375 -9.046875 2.4375 -8.59375 C 2.4375 -7.6875 3.4375 -6.796875 4.515625 -6.796875 C 5.5625 -6.796875 6.40625 -7.484375 6.921875 -8.71875 Z M 7.3125 -9.59375 "/></g></g></g><g fill="#ffffff" fill-opacity="1"><g transform="translate(236.409475, 191.913686)"><g><path d="M 7.3125 -9.59375 L 8.203125 -7.921875 C 8.5625 -7.15625 8.6875 -6.796875 8.6875 -6.28125 C 8.6875 -4.921875 7.796875 -4.28125 5.953125 -4.28125 L 3.234375 -4.28125 C 1.6875 -4.28125 0.40625 -3.125 0.40625 -1.765625 C 0.40625 -0.640625 1.125 -0.046875 2.40625 0 L 7.234375 0 C 7.4375 0 7.84375 -0.046875 8.4375 -0.203125 C 9.59375 -0.4375 10.078125 -0.59375 10.59375 -0.921875 C 12.28125 -2 13.359375 -3.921875 13.359375 -5.875 C 13.359375 -7.28125 12.796875 -8.71875 11.6875 -10.3125 L 10.5625 -11.875 C 9.921875 -12.765625 9.640625 -13.515625 9.640625 -14.359375 C 9.640625 -14.59375 9.6875 -14.875 9.71875 -15.15625 C 9.796875 -15.515625 9.84375 -15.796875 9.84375 -15.953125 C 9.84375 -16.84375 8.953125 -17.5625 7.953125 -17.5625 C 6.953125 -17.5625 6.234375 -17 5.59375 -15.71875 L 3 -10.4375 C 2.640625 -9.71875 2.4375 -9.046875 2.4375 -8.59375 C 2.4375 -7.6875 3.4375 -6.796875 4.515625 -6.796875 C 5.5625 -6.796875 6.40625 -7.484375 6.921875 -8.71875 Z M 7.3125 -9.59375 "/></g></g></g><g fill="#ffffff" fill-opacity="1"><g transform="translate(250.728048, 191.913686)"><g><path d="M 7.234375 0 C 9.6875 0 10.84375 -0.203125 12 -0.953125 C 14.359375 -2.484375 16.046875 -5.765625 16.046875 -8.84375 C 16.046875 -12.5625 13.3125 -15.203125 9.4375 -15.203125 C 4.6875 -15.203125 0.515625 -10.953125 0.515625 -6.125 C 0.515625 -3.921875 1.515625 -1.875 3.15625 -0.765625 C 4.046875 -0.15625 4.921875 0 7.234375 0 Z M 11.40625 -8.640625 C 11.40625 -7.203125 10.59375 -5.484375 9.59375 -4.71875 C 9.125 -4.3125 8.6875 -4.234375 7.71875 -4.234375 C 6.046875 -4.234375 5.234375 -4.921875 5.234375 -6.4375 C 5.234375 -8.796875 7.125 -11.046875 9.125 -11.046875 C 10.4375 -11.046875 11.40625 -10.046875 11.40625 -8.640625 Z M 11.40625 -8.640625 "/></g></g></g><g fill="#ffffff" fill-opacity="1"><g transform="translate(267.2864, 191.913686)"><g><path d="M 6.3125 -6.84375 L 6.875 -12.125 C 6.921875 -12.515625 6.953125 -12.953125 6.953125 -13.078125 C 6.953125 -14.15625 6.203125 -14.921875 5.15625 -14.921875 C 4.234375 -14.921875 3.28125 -14.40625 2.796875 -13.59375 C 2.515625 -13.125 2.40625 -12.71875 2.3125 -11.6875 L 1.640625 -3.921875 C 1.59375 -3.765625 1.59375 -3.5625 1.59375 -3.4375 C 1.59375 -2.359375 1.765625 -1.59375 2.078125 -1.078125 C 2.5625 -0.28125 3.640625 0.3125 4.640625 0.3125 C 5.59375 0.3125 6.6875 -0.3125 7.4375 -1.3125 L 14.6875 -10.640625 C 15.484375 -11.71875 15.84375 -12.484375 15.84375 -13.125 C 15.84375 -14.3125 14.953125 -15.203125 13.796875 -15.203125 C 12.796875 -15.203125 11.953125 -14.6875 11.203125 -13.5625 L 10.84375 -13.046875 Z M 6.3125 -6.84375 "/></g></g></g><g fill="#ffffff" fill-opacity="1"><g transform="translate(282.204917, 191.913686)"><g><path d="M 5.203125 -5.71875 L 9.125 -5.71875 C 10.765625 -5.71875 11.3125 -5.796875 12.203125 -6.203125 C 13.796875 -6.875 14.796875 -8.484375 14.796875 -10.3125 C 14.796875 -13.234375 12.5625 -15.203125 9.203125 -15.203125 C 4.484375 -15.203125 0.515625 -11.046875 0.515625 -6.046875 C 0.515625 -3.84375 1.3125 -2.125 2.796875 -1 C 3.84375 -0.234375 4.875 0 6.84375 0 L 12.84375 0 C 14.40625 0 15.6875 -1.125 15.6875 -2.515625 C 15.6875 -3.640625 14.953125 -4.234375 13.6875 -4.28125 L 7.40625 -4.28125 C 5.953125 -4.28125 5.203125 -4.765625 5.203125 -5.71875 Z M 6.125 -9.28125 C 6.796875 -10.5625 7.796875 -11.234375 9 -11.234375 C 9.765625 -11.234375 10.3125 -10.765625 10.3125 -10.15625 C 10.3125 -9.5625 9.71875 -9.28125 8.28125 -9.28125 Z M 6.125 -9.28125 "/></g></g></g><g fill="#ffffff" fill-opacity="1"><g transform="translate(298.163336, 191.913686)"><g><path d="M 5.4375 -10.640625 L 7.484375 -10.640625 C 5.28125 -8.203125 4.484375 -6.6875 4.484375 -4.84375 C 4.484375 -2.59375 5.6875 -0.765625 7.4375 -0.28125 C 8.078125 -0.125 8.640625 0 8.921875 0 L 13.234375 0 C 14.796875 0 16.046875 -1.125 16.046875 -2.515625 C 16.046875 -3.640625 15.3125 -4.234375 14.046875 -4.28125 L 11.125 -4.28125 C 9.953125 -4.28125 9.3125 -4.875 9.3125 -5.921875 C 9.3125 -6.484375 9.5625 -7.046875 10.28125 -8.078125 C 10.875 -8.953125 11.203125 -9.3125 12.40625 -10.484375 L 12.640625 -10.640625 C 13.765625 -10.6875 14.125 -10.71875 14.484375 -10.921875 C 15.203125 -11.234375 15.875 -12.28125 15.875 -13.125 C 15.875 -14.28125 15.125 -14.921875 13.796875 -14.921875 L 8.71875 -14.921875 C 7.515625 -14.921875 7.40625 -15 7.234375 -15.640625 L 7.078125 -16.234375 C 6.875 -17.125 6.234375 -17.59375 5.28125 -17.59375 C 4.234375 -17.59375 3.640625 -17.078125 3.046875 -15.640625 L 0.84375 -10.203125 C 0.484375 -9.28125 0.40625 -9.046875 0.40625 -8.640625 C 0.40625 -7.640625 1.3125 -6.84375 2.40625 -6.84375 C 3.484375 -6.84375 4.15625 -7.4375 4.796875 -9.046875 Z M 5.4375 -10.640625 "/></g></g></g><g clip-path="url(#8decb71c17)"><path fill="#738fb4" d="M 248.621094 201.492188 C 248.621094 201.492188 248.210938 201.664062 247.429688 201.980469 C 246.652344 202.300781 245.507812 202.78125 244.03125 203.359375 C 241.085938 204.535156 236.824219 206.191406 231.546875 208.003906 C 230.222656 208.453125 228.84375 208.925781 227.398438 209.386719 C 226.675781 209.617188 225.945312 209.867188 225.191406 210.09375 C 224.441406 210.324219 223.675781 210.5625 222.898438 210.800781 C 222.121094 211.042969 221.328125 211.265625 220.523438 211.5 C 219.71875 211.738281 218.902344 211.980469 218.070312 212.203125 C 217.238281 212.429688 216.394531 212.660156 215.542969 212.894531 C 214.6875 213.113281 213.820312 213.335938 212.945312 213.5625 C 209.433594 214.441406 205.742188 215.277344 201.914062 216.011719 C 198.085938 216.738281 194.125 217.367188 190.0625 217.851562 C 181.953125 218.835938 173.476562 219.144531 165.121094 218.617188 C 164.078125 218.535156 163.035156 218.457031 162 218.375 C 160.960938 218.269531 159.925781 218.148438 158.894531 218.035156 C 158.636719 218.007812 158.378906 217.976562 158.121094 217.949219 C 157.863281 217.910156 157.609375 217.875 157.351562 217.835938 C 156.839844 217.761719 156.328125 217.6875 155.816406 217.609375 C 155.304688 217.535156 154.796875 217.464844 154.289062 217.382812 C 153.78125 217.289062 153.277344 217.195312 152.773438 217.105469 C 150.753906 216.757812 148.773438 216.289062 146.816406 215.835938 C 145.84375 215.574219 144.878906 215.316406 143.921875 215.058594 C 143.679688 214.992188 143.441406 214.933594 143.203125 214.859375 C 142.96875 214.785156 142.734375 214.710938 142.496094 214.636719 C 142.027344 214.488281 141.558594 214.339844 141.09375 214.191406 C 140.625 214.042969 140.160156 213.898438 139.699219 213.75 C 139.242188 213.582031 138.789062 213.417969 138.335938 213.253906 C 137.882812 213.085938 137.433594 212.921875 136.988281 212.757812 C 136.539062 212.589844 136.089844 212.433594 135.664062 212.253906 C 135.230469 212.078125 134.800781 211.902344 134.375 211.726562 C 133.949219 211.554688 133.53125 211.367188 133.113281 211.191406 C 132.277344 210.835938 131.464844 210.457031 130.664062 210.089844 C 127.457031 208.601562 124.527344 207.003906 121.886719 205.425781 C 116.609375 202.261719 112.519531 199.125 109.75 196.699219 C 104.199219 191.851562 100.285156 187.085938 97.566406 182.882812 C 94.847656 178.671875 93.285156 175.046875 92.457031 172.148438 C 92.253906 171.417969 92.078125 170.746094 91.960938 170.109375 C 91.84375 169.46875 91.757812 168.878906 91.699219 168.335938 C 91.609375 167.238281 91.632812 166.328125 91.761719 165.574219 C 92.03125 164.0625 92.652344 163.222656 93.453125 162.863281 C 94.257812 162.5 95.3125 162.597656 96.597656 163.261719 C 97.242188 163.59375 97.964844 164.058594 98.738281 164.683594 C 99.136719 164.988281 99.550781 165.332031 99.980469 165.71875 C 100.410156 166.105469 100.878906 166.519531 101.351562 166.980469 C 103.265625 168.820312 105.566406 171.261719 108.511719 174.328125 C 111.460938 177.382812 115.085938 181.050781 119.800781 185.175781 C 122.15625 187.238281 125.503906 190.082031 129.832031 193.132812 C 131.996094 194.652344 134.402344 196.234375 137.046875 197.761719 C 137.710938 198.140625 138.378906 198.53125 139.074219 198.898438 C 139.417969 199.085938 139.761719 199.285156 140.117188 199.464844 C 140.46875 199.648438 140.824219 199.832031 141.179688 200.019531 C 141.535156 200.210938 141.898438 200.375 142.257812 200.550781 C 142.621094 200.726562 142.988281 200.902344 143.351562 201.078125 C 143.71875 201.253906 144.089844 201.433594 144.460938 201.613281 C 144.839844 201.773438 145.222656 201.9375 145.605469 202.101562 C 145.988281 202.269531 146.375 202.4375 146.765625 202.601562 C 146.957031 202.6875 147.152344 202.769531 147.347656 202.855469 C 147.542969 202.9375 147.746094 203.007812 147.945312 203.085938 C 148.746094 203.390625 149.554688 203.703125 150.367188 204.015625 C 152.027344 204.578125 153.707031 205.175781 155.457031 205.667969 C 155.894531 205.796875 156.332031 205.929688 156.769531 206.058594 C 157.210938 206.175781 157.65625 206.289062 158.101562 206.40625 C 158.550781 206.523438 158.996094 206.640625 159.445312 206.757812 L 160.121094 206.933594 L 160.804688 207.085938 C 161.71875 207.289062 162.636719 207.5 163.558594 207.699219 C 164.492188 207.878906 165.425781 208.058594 166.363281 208.238281 C 173.894531 209.566406 181.832031 210.226562 189.609375 210.21875 C 193.5 210.226562 197.355469 210.085938 201.117188 209.84375 C 204.878906 209.589844 208.542969 209.226562 212.054688 208.804688 C 212.933594 208.695312 213.800781 208.582031 214.660156 208.476562 C 215.519531 208.355469 216.367188 208.234375 217.203125 208.113281 C 218.042969 208 218.867188 207.863281 219.679688 207.738281 C 220.492188 207.605469 221.300781 207.488281 222.089844 207.347656 C 222.878906 207.210938 223.652344 207.074219 224.417969 206.945312 C 225.183594 206.816406 225.933594 206.664062 226.667969 206.527344 C 228.144531 206.261719 229.558594 205.972656 230.914062 205.695312 C 236.335938 204.589844 240.757812 203.511719 243.832031 202.734375 C 245.367188 202.355469 246.5625 202.03125 247.378906 201.820312 C 248.191406 201.605469 248.621094 201.492188 248.621094 201.492188 " fill-opacity="1" fill-rule="nonzero"/></g><path fill="#738fb4" d="M 191.492188 205.007812 C 191.492188 205.007812 190.125 205.121094 187.699219 205.324219 C 187.089844 205.347656 186.414062 205.375 185.675781 205.402344 C 185.304688 205.417969 184.917969 205.433594 184.515625 205.449219 C 184.316406 205.457031 184.113281 205.46875 183.90625 205.46875 C 183.695312 205.46875 183.484375 205.46875 183.269531 205.46875 C 182.40625 205.464844 181.488281 205.460938 180.515625 205.457031 C 180.394531 205.457031 180.273438 205.457031 180.148438 205.453125 C 180.023438 205.449219 179.902344 205.441406 179.777344 205.4375 C 179.527344 205.425781 179.273438 205.414062 179.019531 205.402344 C 178.507812 205.378906 177.980469 205.355469 177.441406 205.332031 C 173.144531 205.097656 168.070312 204.53125 162.589844 203.394531 C 157.113281 202.265625 151.238281 200.574219 145.375 198.222656 C 144.648438 197.910156 143.921875 197.59375 143.191406 197.28125 C 142.460938 196.964844 141.71875 196.664062 141.003906 196.300781 C 139.566406 195.601562 138.097656 194.925781 136.691406 194.128906 C 135.980469 193.738281 135.261719 193.363281 134.558594 192.960938 C 133.863281 192.542969 133.167969 192.121094 132.472656 191.699219 L 131.433594 191.066406 C 131.089844 190.839844 130.746094 190.617188 130.402344 190.394531 C 130.0625 190.160156 129.722656 189.929688 129.382812 189.699219 C 129.050781 189.464844 128.71875 189.226562 128.382812 188.988281 C 123.089844 185.160156 118.488281 180.648438 114.753906 175.957031 C 112.886719 173.609375 111.242188 171.210938 109.832031 168.835938 C 109.128906 167.644531 108.484375 166.460938 107.894531 165.292969 C 107.3125 164.121094 106.785156 162.964844 106.3125 161.835938 C 105.382812 159.566406 104.667969 157.410156 104.175781 155.429688 C 103.675781 153.453125 103.375 151.667969 103.214844 150.164062 C 102.878906 147.152344 102.964844 144.324219 103.308594 141.785156 C 103.351562 141.46875 103.40625 141.152344 103.457031 140.84375 C 103.507812 140.535156 103.5625 140.230469 103.625 139.933594 C 103.6875 139.632812 103.753906 139.339844 103.8125 139.046875 C 103.886719 138.757812 103.960938 138.472656 104.03125 138.191406 C 104.066406 138.050781 104.101562 137.910156 104.140625 137.769531 C 104.179688 137.632812 104.222656 137.496094 104.261719 137.359375 C 104.34375 137.089844 104.425781 136.824219 104.507812 136.558594 C 104.6875 136.039062 104.859375 135.53125 105.054688 135.046875 C 105.816406 133.105469 106.707031 131.480469 107.609375 130.132812 C 107.839844 129.800781 108.054688 129.472656 108.285156 129.175781 C 108.515625 128.875 108.742188 128.589844 108.960938 128.3125 C 109.425781 127.78125 109.851562 127.292969 110.292969 126.875 C 112.03125 125.1875 113.539062 124.375 114.667969 124.042969 C 115.820312 123.734375 116.605469 123.90625 117.109375 124.351562 C 117.613281 124.800781 117.882812 125.570312 117.835938 126.664062 C 117.816406 127.773438 117.484375 129.207031 116.976562 131.074219 C 116.839844 131.535156 116.722656 132.039062 116.566406 132.554688 C 116.429688 133.078125 116.285156 133.628906 116.128906 134.214844 C 115.832031 135.382812 115.523438 136.675781 115.261719 138.117188 C 114.753906 141.011719 114.410156 144.519531 114.882812 148.902344 C 115 149.992188 115.179688 151.3125 115.484375 152.820312 C 115.78125 154.332031 116.226562 156.03125 116.824219 157.878906 C 117.132812 158.800781 117.480469 159.757812 117.875 160.746094 C 118.273438 161.730469 118.714844 162.742188 119.210938 163.777344 C 120.199219 165.84375 121.386719 167.996094 122.78125 170.15625 C 125.566406 174.476562 129.160156 178.867188 133.425781 182.746094 C 133.691406 182.988281 133.960938 183.226562 134.230469 183.46875 C 134.503906 183.703125 134.777344 183.941406 135.050781 184.175781 L 135.886719 184.871094 L 136.757812 185.542969 C 137.339844 185.996094 137.925781 186.449219 138.507812 186.902344 C 139.105469 187.34375 139.71875 187.761719 140.324219 188.191406 C 141.523438 189.070312 142.800781 189.84375 144.050781 190.652344 C 144.671875 191.066406 145.324219 191.425781 145.964844 191.800781 C 146.609375 192.171875 147.25 192.546875 147.890625 192.917969 C 153.089844 195.773438 158.460938 198.074219 163.566406 199.8125 C 168.667969 201.558594 173.503906 202.742188 177.65625 203.511719 C 178.179688 203.601562 178.6875 203.691406 179.183594 203.78125 C 179.433594 203.824219 179.675781 203.867188 179.917969 203.910156 C 180.039062 203.929688 180.160156 203.953125 180.28125 203.972656 C 180.402344 203.988281 180.519531 204.007812 180.636719 204.023438 C 181.589844 204.152344 182.488281 204.273438 183.328125 204.386719 C 183.542969 204.414062 183.75 204.441406 183.953125 204.46875 C 184.15625 204.496094 184.359375 204.507812 184.554688 204.527344 C 184.949219 204.566406 185.332031 204.601562 185.695312 204.632812 C 186.425781 204.703125 187.097656 204.761719 187.699219 204.820312 C 190.128906 204.941406 191.492188 205.007812 191.492188 205.007812 " fill-opacity="1" fill-rule="nonzero"/><g clip-path="url(#22878bee2f)"><path fill="#b3d3e6" d="M 177.058594 198.089844 C 177.058594 198.089844 176.625 198.070312 175.808594 198.035156 C 175.605469 198.023438 175.378906 198.015625 175.125 198.003906 C 174.875 197.992188 174.601562 197.960938 174.300781 197.9375 C 173.710938 197.882812 173.019531 197.847656 172.253906 197.738281 C 171.871094 197.691406 171.46875 197.640625 171.039062 197.589844 C 170.613281 197.535156 170.171875 197.453125 169.707031 197.382812 C 168.777344 197.246094 167.785156 197.027344 166.707031 196.808594 C 164.570312 196.328125 162.167969 195.664062 159.582031 194.726562 C 157 193.792969 154.238281 192.585938 151.402344 191.058594 C 148.566406 189.539062 145.679688 187.664062 142.824219 185.46875 C 139.960938 183.277344 137.183594 180.707031 134.550781 177.832031 C 134.222656 177.472656 133.90625 177.101562 133.578125 176.730469 C 133.417969 176.546875 133.253906 176.359375 133.09375 176.175781 C 132.933594 175.988281 132.78125 175.792969 132.621094 175.601562 C 132.308594 175.21875 131.996094 174.835938 131.679688 174.449219 C 131.378906 174.050781 131.074219 173.65625 130.769531 173.257812 L 130.316406 172.652344 L 129.878906 172.039062 C 129.589844 171.625 129.289062 171.214844 129.003906 170.792969 C 128.449219 169.945312 127.871094 169.097656 127.351562 168.210938 L 126.953125 167.550781 L 126.75 167.222656 L 126.5625 166.886719 C 126.308594 166.433594 126.054688 165.984375 125.800781 165.53125 C 125.546875 165.078125 125.324219 164.609375 125.078125 164.148438 L 124.722656 163.453125 C 124.605469 163.222656 124.5 162.984375 124.386719 162.746094 C 124.164062 162.273438 123.941406 161.796875 123.71875 161.324219 C 123.507812 160.828125 123.300781 160.335938 123.089844 159.839844 C 122.886719 159.339844 122.703125 158.832031 122.511719 158.328125 C 122.414062 158.074219 122.328125 157.816406 122.242188 157.558594 L 121.984375 156.789062 C 120.65625 152.660156 119.875 148.265625 119.910156 143.769531 C 119.953125 139.28125 120.824219 134.71875 122.683594 130.5 C 123.140625 129.445312 123.675781 128.433594 124.242188 127.445312 C 124.539062 126.960938 124.824219 126.46875 125.144531 126.003906 C 125.300781 125.769531 125.457031 125.535156 125.613281 125.300781 C 125.777344 125.074219 125.941406 124.847656 126.105469 124.621094 C 127.425781 122.816406 128.921875 121.210938 130.476562 119.769531 C 132.035156 118.328125 133.675781 117.082031 135.328125 115.980469 C 136.984375 114.878906 138.65625 113.929688 140.316406 113.113281 C 143.636719 111.476562 146.886719 110.328125 149.921875 109.503906 C 151.445312 109.085938 152.886719 108.761719 154.367188 108.488281 C 154.730469 108.417969 155.09375 108.367188 155.449219 108.308594 C 155.804688 108.253906 156.15625 108.191406 156.507812 108.152344 C 157.203125 108.070312 157.882812 107.976562 158.546875 107.929688 C 161.191406 107.699219 163.523438 107.726562 165.453125 107.863281 C 167.382812 108.003906 169.214844 108.253906 170.9375 108.597656 C 172.65625 108.941406 174.269531 109.367188 175.777344 109.839844 C 178.785156 110.804688 181.375 111.953125 183.578125 113.164062 C 185.785156 114.371094 187.621094 115.621094 189.15625 116.828125 C 190.6875 118.039062 191.921875 119.207031 192.910156 120.292969 C 193.894531 121.382812 194.644531 122.386719 195.199219 123.296875 C 195.472656 123.753906 195.707031 124.179688 195.890625 124.585938 C 196.074219 124.992188 196.214844 125.371094 196.320312 125.722656 C 196.734375 127.148438 196.550781 128.152344 196.011719 128.808594 C 195.464844 129.46875 194.511719 129.832031 193.105469 129.804688 C 191.691406 129.78125 189.816406 129.367188 187.378906 128.59375 C 184.933594 127.835938 181.921875 126.695312 178.15625 125.5 C 176.273438 124.898438 174.199219 124.3125 171.914062 123.789062 C 170.769531 123.539062 169.574219 123.304688 168.320312 123.105469 C 167.070312 122.910156 165.761719 122.757812 164.394531 122.660156 C 163.03125 122.5625 161.394531 122.492188 159.527344 122.5625 C 159.0625 122.570312 158.582031 122.617188 158.085938 122.640625 C 157.839844 122.652344 157.589844 122.6875 157.335938 122.707031 C 157.082031 122.738281 156.824219 122.75 156.5625 122.785156 C 155.542969 122.90625 154.375 123.085938 153.203125 123.3125 C 150.84375 123.769531 148.332031 124.433594 145.820312 125.402344 C 144.5625 125.882812 143.316406 126.449219 142.097656 127.097656 C 140.878906 127.75 139.683594 128.480469 138.566406 129.320312 C 137.449219 130.164062 136.382812 131.085938 135.433594 132.132812 L 135.074219 132.523438 L 134.734375 132.929688 C 134.5 133.195312 134.296875 133.484375 134.074219 133.765625 C 133.65625 134.34375 133.246094 134.933594 132.890625 135.5625 C 132.800781 135.722656 132.699219 135.875 132.617188 136.035156 L 132.363281 136.523438 C 132.273438 136.679688 132.199219 136.851562 132.121094 137.023438 L 131.886719 137.535156 C 131.714844 137.871094 131.59375 138.230469 131.453125 138.585938 C 131.382812 138.765625 131.308594 138.941406 131.242188 139.125 L 131.066406 139.675781 C 130.585938 141.152344 130.238281 142.71875 130.03125 144.347656 C 129.628906 147.601562 129.8125 151.085938 130.488281 154.523438 L 130.621094 155.167969 C 130.664062 155.382812 130.707031 155.597656 130.765625 155.808594 C 130.875 156.234375 130.972656 156.664062 131.089844 157.089844 L 131.457031 158.363281 C 131.597656 158.792969 131.742188 159.226562 131.882812 159.65625 C 131.957031 159.871094 132.023438 160.089844 132.101562 160.300781 L 132.339844 160.941406 C 132.5 161.363281 132.648438 161.792969 132.820312 162.214844 C 132.996094 162.632812 133.167969 163.054688 133.339844 163.472656 L 133.46875 163.789062 L 133.613281 164.097656 L 133.890625 164.714844 C 134.253906 165.546875 134.671875 166.351562 135.070312 167.164062 C 135.277344 167.5625 135.496094 167.957031 135.710938 168.355469 L 136.03125 168.949219 L 136.367188 169.535156 C 136.597656 169.921875 136.824219 170.308594 137.046875 170.695312 C 137.289062 171.074219 137.523438 171.453125 137.761719 171.828125 C 137.882812 172.019531 137.996094 172.210938 138.121094 172.394531 C 138.246094 172.578125 138.371094 172.761719 138.496094 172.945312 C 138.746094 173.3125 138.988281 173.683594 139.246094 174.042969 C 141.296875 176.921875 143.53125 179.589844 145.910156 181.933594 C 148.285156 184.285156 150.746094 186.375 153.222656 188.140625 C 155.695312 189.914062 158.160156 191.394531 160.507812 192.601562 C 162.855469 193.8125 165.082031 194.757812 167.089844 195.496094 C 168.101562 195.839844 169.042969 196.183594 169.929688 196.433594 C 170.371094 196.5625 170.792969 196.699219 171.203125 196.808594 C 171.609375 196.914062 172 197.015625 172.371094 197.113281 C 173.109375 197.316406 173.777344 197.441406 174.355469 197.574219 C 174.644531 197.636719 174.910156 197.703125 175.15625 197.746094 C 175.40625 197.792969 175.628906 197.832031 175.828125 197.867188 C 176.632812 198.011719 177.058594 198.089844 177.058594 198.089844 " fill-opacity="1" fill-rule="nonzero"/></g><g fill="#ffffff" fill-opacity="1"><g transform="translate(154.377635, 147.863618)"><g><path d="M 31 -22 L 35.078125 -22 C 36.796875 -22 38.15625 -23.234375 38.15625 -24.765625 C 38.15625 -25.953125 37.40625 -26.640625 35.953125 -26.6875 L 22.125 -26.6875 C 20.40625 -26.6875 19 -25.4375 19 -23.921875 C 19 -22.71875 19.796875 -22.046875 21.203125 -22 L 25.515625 -22 L 18.765625 -5.3125 C 18.28125 -4.125 17.71875 -2.875 17.15625 -1.796875 C 16.28125 0 15.59375 1.078125 14.875 1.84375 C 13.640625 3.203125 12.359375 3.84375 10.875 3.84375 C 8.234375 3.84375 6.59375 2.078125 6.59375 -0.6875 C 6.59375 -5.515625 10.765625 -9.4375 16.15625 -9.765625 C 19.28125 -9.921875 20.40625 -10.640625 20.40625 -12.40625 C 20.40625 -13.953125 19.046875 -14.84375 16.71875 -14.84375 C 8.28125 -14.84375 1.078125 -8.15625 1.078125 -0.234375 C 1.078125 5.28125 4.84375 9 10.4375 9 C 15.71875 9 19.515625 5.84375 22.40625 -0.921875 C 22.796875 -1.875 23.59375 -3.71875 24.234375 -5.3125 Z M 31 -22 "/></g></g></g></svg>