<svg xmlns="http://www.w3.org/2000/svg" xmlns:xlink="http://www.w3.org/1999/xlink" width="500" zoomAndPan="magnify" viewBox="0 0 375 225" height="300" preserveAspectRatio="xMidYMid meet" version="1.0"><defs><g/><clipPath id="b8fdb90f6d"><path d="M 0 111 L 263.585938 111 L 263.585938 206 L 0 206 Z M 0 111 " clip-rule="nonzero"/></clipPath><clipPath id="951a148155"><path d="M 47 18.753906 L 177 18.753906 L 177 171 L 47 171 Z M 47 18.753906 " clip-rule="nonzero"/></clipPath></defs><g fill="#ffffff" fill-opacity="1"><g transform="translate(105.541848, 86.002571)"><g><path d="M 52.125 -37 L 58.984375 -37 C 61.890625 -37 64.171875 -39.078125 64.171875 -41.640625 C 64.171875 -43.65625 62.890625 -44.796875 60.46875 -44.859375 L 37.203125 -44.859375 C 34.3125 -44.859375 31.953125 -42.78125 31.953125 -40.21875 C 31.953125 -38.203125 33.296875 -37.0625 35.65625 -37 L 42.921875 -37 L 31.546875 -8.953125 C 30.734375 -6.921875 29.796875 -4.84375 28.859375 -3.03125 C 27.375 0 26.234375 1.8125 25.015625 3.09375 C 22.9375 5.375 20.78125 6.453125 18.296875 6.453125 C 13.859375 6.453125 11.09375 3.5 11.09375 -1.140625 C 11.09375 -9.28125 18.09375 -15.875 27.171875 -16.40625 C 32.421875 -16.6875 34.3125 -17.890625 34.3125 -20.859375 C 34.3125 -23.46875 32.015625 -24.953125 28.109375 -24.953125 C 13.921875 -24.953125 1.8125 -13.71875 1.8125 -0.40625 C 1.8125 8.875 8.140625 15.140625 17.5625 15.140625 C 26.4375 15.140625 32.828125 9.828125 37.671875 -1.546875 C 38.34375 -3.15625 39.6875 -6.25 40.765625 -8.953125 Z M 52.125 -37 "/></g></g></g><g fill="#ffffff" fill-opacity="1"><g transform="translate(158.472346, 86.002571)"><g><path d="M 17.359375 -23.671875 L 23.609375 -39.078125 L 23.953125 -39.953125 C 24.21875 -40.703125 24.421875 -41.5 24.421875 -42.171875 C 24.421875 -43.921875 23 -45.265625 21.125 -45.265625 C 18.765625 -45.265625 17.359375 -43.984375 16.015625 -40.765625 L 1.75 -5.515625 L 1.34375 -4.640625 C 1.078125 -3.90625 0.875 -3.09375 0.875 -2.421875 C 0.875 -0.671875 2.28125 0.609375 4.171875 0.609375 C 6.25 0.609375 7.9375 -0.609375 8.953125 -2.953125 L 9.28125 -3.828125 L 12.921875 -12.921875 C 14.53125 -16.6875 16.34375 -18.5625 18.625 -18.5625 C 20.046875 -18.5625 21.125 -17.828125 21.125 -16.6875 C 21.125 -16.140625 20.984375 -15.609375 20.515625 -14.59375 L 17.5625 -7.203125 L 17.15625 -6.328125 C 16.953125 -5.71875 16.8125 -5.046875 16.8125 -4.3125 C 16.8125 -1.8125 18.828125 0 21.734375 0 L 29.125 0 C 31.75 0 33.90625 -1.890625 33.90625 -4.234375 C 33.90625 -6.125 32.6875 -7.125 30.53125 -7.203125 L 25.96875 -7.203125 L 29.46875 -15.734375 C 29.859375 -16.8125 30.203125 -18.359375 30.203125 -19.4375 C 30.203125 -22.9375 27.171875 -25.5625 23.078125 -25.5625 C 21.125 -25.5625 20.25 -25.296875 17.359375 -23.671875 Z M 17.359375 -23.671875 "/></g></g></g><g fill="#ffffff" fill-opacity="1"><g transform="translate(192.772922, 86.002571)"><g><path d="M 8.75 -9.625 L 15.34375 -9.625 C 18.09375 -9.625 19.03125 -9.75 20.515625 -10.421875 C 23.203125 -11.5625 24.890625 -14.265625 24.890625 -17.359375 C 24.890625 -22.265625 21.125 -25.5625 15.46875 -25.5625 C 7.53125 -25.5625 0.875 -18.5625 0.875 -10.15625 C 0.875 -6.453125 2.21875 -3.5625 4.703125 -1.6875 C 6.453125 -0.40625 8.203125 0 11.5 0 L 21.59375 0 C 24.21875 0 26.375 -1.890625 26.375 -4.234375 C 26.375 -6.125 25.15625 -7.125 23 -7.203125 L 12.4375 -7.203125 C 10.015625 -7.203125 8.75 -8 8.75 -9.625 Z M 10.296875 -15.609375 C 11.4375 -17.765625 13.109375 -18.90625 15.140625 -18.90625 C 16.40625 -18.90625 17.359375 -18.09375 17.359375 -17.078125 C 17.359375 -16.078125 16.34375 -15.609375 13.921875 -15.609375 Z M 10.296875 -15.609375 "/></g></g></g><g fill="#ffffff" fill-opacity="1"><g transform="translate(105.541848, 160.411952)"><g><path d="M 41.171875 -20.3125 L 56.90625 -36.65625 L 57.640625 -37.46875 C 58.921875 -38.8125 59.59375 -40.15625 59.59375 -41.375 C 59.59375 -43.59375 58.046875 -45.140625 55.765625 -45.140625 C 54.34375 -45.140625 53 -44.46875 51.53125 -42.921875 L 50.78125 -42.171875 L 33.5625 -24.078125 L 34.703125 -26.90625 C 35.859375 -29.671875 36.390625 -32.28125 36.390625 -34.578125 C 36.390625 -40.765625 30.9375 -45.609375 24.015625 -45.609375 C 14.125 -45.609375 5.78125 -37.328125 5.78125 -27.515625 C 5.78125 -20.984375 10.359375 -15.734375 16.015625 -15.734375 C 18.625 -15.734375 20.78125 -17.625 20.78125 -19.984375 C 20.78125 -21.1875 20.109375 -22.328125 19.234375 -22.671875 L 17.28125 -23.46875 C 15.34375 -24.28125 14.125 -25.96875 14.125 -28.046875 C 14.125 -32.953125 18.234375 -37.53125 22.59375 -37.53125 C 25.296875 -37.53125 27.515625 -35.375 27.515625 -32.953125 C 27.515625 -32.359375 27.3125 -31.484375 26.84375 -30.203125 L 25.5625 -26.90625 L 17.015625 -5.859375 L 16.6875 -4.90625 C 16.34375 -4.109375 16.140625 -3.15625 16.140625 -2.421875 C 16.140625 -0.53125 17.6875 0.9375 19.78125 0.9375 C 22.40625 0.9375 23.953125 -0.40625 25.421875 -4.03125 L 32.15625 -20.71875 L 40.890625 2.765625 C 42.78125 7.875 44.46875 8.953125 50.25 8.953125 L 62.015625 8.953125 C 64.984375 8.953125 67.328125 6.859375 67.328125 4.234375 C 67.328125 2.15625 65.984375 1.015625 63.5625 0.9375 L 52.0625 0.9375 C 49.84375 0.9375 48.765625 0.265625 48.09375 -1.484375 Z M 41.171875 -20.3125 "/></g></g></g><g fill="#ffffff" fill-opacity="1"><g transform="translate(163.920096, 160.411952)"><g><path d="M 9.140625 -17.890625 L 12.578125 -17.890625 C 8.875 -13.796875 7.53125 -11.234375 7.53125 -8.140625 C 7.53125 -4.375 9.546875 -1.28125 12.515625 -0.46875 C 13.59375 -0.203125 14.53125 0 15 0 L 22.265625 0 C 24.890625 0 26.96875 -1.890625 26.96875 -4.234375 C 26.96875 -6.125 25.765625 -7.125 23.609375 -7.203125 L 18.703125 -7.203125 C 16.75 -7.203125 15.671875 -8.203125 15.671875 -9.953125 C 15.671875 -10.890625 16.078125 -11.84375 17.28125 -13.59375 C 18.296875 -15.0625 18.828125 -15.671875 20.859375 -17.625 L 21.25 -17.890625 C 23.140625 -17.953125 23.75 -18.03125 24.34375 -18.359375 C 25.5625 -18.90625 26.703125 -20.65625 26.703125 -22.0625 C 26.703125 -24.015625 25.421875 -25.09375 23.203125 -25.09375 L 14.65625 -25.09375 C 12.640625 -25.09375 12.4375 -25.21875 12.171875 -26.296875 L 11.90625 -27.3125 C 11.5625 -28.796875 10.5 -29.59375 8.875 -29.59375 C 7.125 -29.59375 6.125 -28.71875 5.109375 -26.296875 L 1.40625 -17.15625 C 0.8125 -15.609375 0.671875 -15.203125 0.671875 -14.53125 C 0.671875 -12.84375 2.21875 -11.5 4.03125 -11.5 C 5.859375 -11.5 7 -12.515625 8.078125 -15.203125 Z M 9.140625 -17.890625 "/></g></g></g><g fill="#ffffff" fill-opacity="1"><g transform="translate(191.562319, 160.411952)"><g><path d="M 12.171875 0 C 16.28125 0 18.234375 -0.34375 20.171875 -1.609375 C 24.140625 -4.171875 26.96875 -9.6875 26.96875 -14.859375 C 26.96875 -21.125 22.40625 -25.5625 15.875 -25.5625 C 7.875 -25.5625 0.875 -18.4375 0.875 -10.296875 C 0.875 -6.59375 2.5625 -3.15625 5.3125 -1.28125 C 6.796875 -0.265625 8.28125 0 12.171875 0 Z M 19.171875 -14.53125 C 19.171875 -12.109375 17.828125 -9.21875 16.140625 -7.9375 C 15.34375 -7.265625 14.59375 -7.125 12.984375 -7.125 C 10.15625 -7.125 8.8125 -8.28125 8.8125 -10.828125 C 8.8125 -14.796875 11.96875 -18.5625 15.34375 -18.5625 C 17.5625 -18.5625 19.171875 -16.890625 19.171875 -14.53125 Z M 19.171875 -14.53125 "/></g></g></g><g fill="#ffffff" fill-opacity="1"><g transform="translate(219.406315, 160.411952)"><g><path d="M 12.3125 -16.140625 L 13.796875 -13.3125 C 14.390625 -12.046875 14.59375 -11.4375 14.59375 -10.5625 C 14.59375 -8.28125 13.109375 -7.203125 10.015625 -7.203125 L 5.453125 -7.203125 C 2.828125 -7.203125 0.671875 -5.25 0.671875 -2.953125 C 0.671875 -1.078125 1.890625 -0.0625 4.03125 0 L 12.171875 0 C 12.515625 0 13.1875 -0.0625 14.1875 -0.34375 C 16.140625 -0.734375 16.953125 -1.015625 17.828125 -1.546875 C 20.65625 -3.359375 22.46875 -6.59375 22.46875 -9.890625 C 22.46875 -12.25 21.53125 -14.65625 19.640625 -17.359375 L 17.765625 -19.984375 C 16.6875 -21.453125 16.21875 -22.734375 16.21875 -24.140625 C 16.21875 -24.546875 16.28125 -25.015625 16.34375 -25.5 C 16.484375 -26.09375 16.546875 -26.5625 16.546875 -26.84375 C 16.546875 -28.3125 15.0625 -29.53125 13.390625 -29.53125 C 11.703125 -29.53125 10.5 -28.59375 9.421875 -26.4375 L 5.046875 -17.5625 C 4.4375 -16.34375 4.109375 -15.203125 4.109375 -14.46875 C 4.109375 -12.921875 5.78125 -11.4375 7.59375 -11.4375 C 9.34375 -11.4375 10.765625 -12.578125 11.640625 -14.65625 Z M 12.3125 -16.140625 "/></g></g></g><g fill="#ffffff" fill-opacity="1"><g transform="translate(243.483969, 160.411952)"><g><path d="M 12.3125 -16.140625 L 13.796875 -13.3125 C 14.390625 -12.046875 14.59375 -11.4375 14.59375 -10.5625 C 14.59375 -8.28125 13.109375 -7.203125 10.015625 -7.203125 L 5.453125 -7.203125 C 2.828125 -7.203125 0.671875 -5.25 0.671875 -2.953125 C 0.671875 -1.078125 1.890625 -0.0625 4.03125 0 L 12.171875 0 C 12.515625 0 13.1875 -0.0625 14.1875 -0.34375 C 16.140625 -0.734375 16.953125 -1.015625 17.828125 -1.546875 C 20.65625 -3.359375 22.46875 -6.59375 22.46875 -9.890625 C 22.46875 -12.25 21.53125 -14.65625 19.640625 -17.359375 L 17.765625 -19.984375 C 16.6875 -21.453125 16.21875 -22.734375 16.21875 -24.140625 C 16.21875 -24.546875 16.28125 -25.015625 16.34375 -25.5 C 16.484375 -26.09375 16.546875 -26.5625 16.546875 -26.84375 C 16.546875 -28.3125 15.0625 -29.53125 13.390625 -29.53125 C 11.703125 -29.53125 10.5 -28.59375 9.421875 -26.4375 L 5.046875 -17.5625 C 4.4375 -16.34375 4.109375 -15.203125 4.109375 -14.46875 C 4.109375 -12.921875 5.78125 -11.4375 7.59375 -11.4375 C 9.34375 -11.4375 10.765625 -12.578125 11.640625 -14.65625 Z M 12.3125 -16.140625 "/></g></g></g><g fill="#ffffff" fill-opacity="1"><g transform="translate(267.561623, 160.411952)"><g><path d="M 12.171875 0 C 16.28125 0 18.234375 -0.34375 20.171875 -1.609375 C 24.140625 -4.171875 26.96875 -9.6875 26.96875 -14.859375 C 26.96875 -21.125 22.40625 -25.5625 15.875 -25.5625 C 7.875 -25.5625 0.875 -18.4375 0.875 -10.296875 C 0.875 -6.59375 2.5625 -3.15625 5.3125 -1.28125 C 6.796875 -0.265625 8.28125 0 12.171875 0 Z M 19.171875 -14.53125 C 19.171875 -12.109375 17.828125 -9.21875 16.140625 -7.9375 C 15.34375 -7.265625 14.59375 -7.125 12.984375 -7.125 C 10.15625 -7.125 8.8125 -8.28125 8.8125 -10.828125 C 8.8125 -14.796875 11.96875 -18.5625 15.34375 -18.5625 C 17.5625 -18.5625 19.171875 -16.890625 19.171875 -14.53125 Z M 19.171875 -14.53125 "/></g></g></g><g fill="#ffffff" fill-opacity="1"><g transform="translate(295.405619, 160.411952)"><g><path d="M 10.625 -11.5 L 11.5625 -20.375 C 11.640625 -21.046875 11.703125 -21.796875 11.703125 -22 C 11.703125 -23.8125 10.421875 -25.09375 8.671875 -25.09375 C 7.125 -25.09375 5.515625 -24.21875 4.703125 -22.875 C 4.234375 -22.0625 4.03125 -21.390625 3.90625 -19.640625 L 2.765625 -6.59375 C 2.6875 -6.328125 2.6875 -5.984375 2.6875 -5.78125 C 2.6875 -3.96875 2.953125 -2.6875 3.5 -1.8125 C 4.3125 -0.46875 6.125 0.53125 7.796875 0.53125 C 9.421875 0.53125 11.234375 -0.53125 12.515625 -2.21875 L 24.6875 -17.890625 C 26.03125 -19.703125 26.640625 -20.984375 26.640625 -22.0625 C 26.640625 -24.078125 25.15625 -25.5625 23.203125 -25.5625 C 21.53125 -25.5625 20.109375 -24.6875 18.828125 -22.796875 L 18.234375 -21.921875 Z M 10.625 -11.5 "/></g></g></g><g fill="#ffffff" fill-opacity="1"><g transform="translate(320.49212, 160.411952)"><g><path d="M 8.75 -9.625 L 15.34375 -9.625 C 18.09375 -9.625 19.03125 -9.75 20.515625 -10.421875 C 23.203125 -11.5625 24.890625 -14.265625 24.890625 -17.359375 C 24.890625 -22.265625 21.125 -25.5625 15.46875 -25.5625 C 7.53125 -25.5625 0.875 -18.5625 0.875 -10.15625 C 0.875 -6.453125 2.21875 -3.5625 4.703125 -1.6875 C 6.453125 -0.40625 8.203125 0 11.5 0 L 21.59375 0 C 24.21875 0 26.375 -1.890625 26.375 -4.234375 C 26.375 -6.125 25.15625 -7.125 23 -7.203125 L 12.4375 -7.203125 C 10.015625 -7.203125 8.75 -8 8.75 -9.625 Z M 10.296875 -15.609375 C 11.4375 -17.765625 13.109375 -18.90625 15.140625 -18.90625 C 16.40625 -18.90625 17.359375 -18.09375 17.359375 -17.078125 C 17.359375 -16.078125 16.34375 -15.609375 13.921875 -15.609375 Z M 10.296875 -15.609375 "/></g></g></g><g fill="#ffffff" fill-opacity="1"><g transform="translate(347.327287, 160.411952)"><g><path d="M 9.140625 -17.890625 L 12.578125 -17.890625 C 8.875 -13.796875 7.53125 -11.234375 7.53125 -8.140625 C 7.53125 -4.375 9.546875 -1.28125 12.515625 -0.46875 C 13.59375 -0.203125 14.53125 0 15 0 L 22.265625 0 C 24.890625 0 26.96875 -1.890625 26.96875 -4.234375 C 26.96875 -6.125 25.765625 -7.125 23.609375 -7.203125 L 18.703125 -7.203125 C 16.75 -7.203125 15.671875 -8.203125 15.671875 -9.953125 C 15.671875 -10.890625 16.078125 -11.84375 17.28125 -13.59375 C 18.296875 -15.0625 18.828125 -15.671875 20.859375 -17.625 L 21.25 -17.890625 C 23.140625 -17.953125 23.75 -18.03125 24.34375 -18.359375 C 25.5625 -18.90625 26.703125 -20.65625 26.703125 -22.0625 C 26.703125 -24.015625 25.421875 -25.09375 23.203125 -25.09375 L 14.65625 -25.09375 C 12.640625 -25.09375 12.4375 -25.21875 12.171875 -26.296875 L 11.90625 -27.3125 C 11.5625 -28.796875 10.5 -29.59375 8.875 -29.59375 C 7.125 -29.59375 6.125 -28.71875 5.109375 -26.296875 L 1.40625 -17.15625 C 0.8125 -15.609375 0.671875 -15.203125 0.671875 -14.53125 C 0.671875 -12.84375 2.21875 -11.5 4.03125 -11.5 C 5.859375 -11.5 7 -12.515625 8.078125 -15.203125 Z M 9.140625 -17.890625 "/></g></g></g><g clip-path="url(#b8fdb90f6d)"><path fill="#738fb4" d="M 264.019531 176.519531 C 264.019531 176.519531 263.328125 176.804688 262.019531 177.34375 C 260.707031 177.878906 258.785156 178.683594 256.300781 179.660156 C 251.347656 181.636719 244.183594 184.417969 235.304688 187.464844 C 233.082031 188.222656 230.761719 189.019531 228.332031 189.792969 C 227.117188 190.179688 225.886719 190.597656 224.621094 190.984375 C 223.355469 191.371094 222.070312 191.769531 220.765625 192.167969 C 219.460938 192.582031 218.121094 192.949219 216.773438 193.351562 C 215.417969 193.746094 214.042969 194.152344 212.644531 194.527344 C 211.246094 194.910156 209.828125 195.300781 208.398438 195.691406 C 206.957031 196.0625 205.496094 196.4375 204.023438 196.816406 C 198.121094 198.292969 191.914062 199.699219 185.476562 200.9375 C 179.042969 202.15625 172.378906 203.214844 165.550781 204.027344 C 151.914062 205.683594 137.660156 206.199219 123.609375 205.316406 C 121.855469 205.179688 120.101562 205.046875 118.355469 204.90625 C 116.613281 204.734375 114.871094 204.527344 113.136719 204.339844 C 112.703125 204.289062 112.269531 204.238281 111.835938 204.191406 C 111.402344 204.128906 110.972656 204.066406 110.542969 204.003906 C 109.679688 203.878906 108.820312 203.75 107.960938 203.625 C 107.105469 203.496094 106.246094 203.375 105.390625 203.242188 C 104.539062 203.082031 103.691406 202.925781 102.84375 202.769531 C 99.445312 202.191406 96.117188 201.402344 92.824219 200.640625 C 91.1875 200.203125 89.566406 199.761719 87.957031 199.328125 C 87.554688 199.21875 87.152344 199.117188 86.753906 199 C 86.355469 198.871094 85.960938 198.746094 85.5625 198.621094 C 84.773438 198.371094 83.984375 198.121094 83.203125 197.875 C 82.417969 197.625 81.636719 197.378906 80.859375 197.132812 C 80.089844 196.851562 79.328125 196.574219 78.566406 196.296875 C 77.804688 196.015625 77.050781 195.738281 76.296875 195.460938 C 75.546875 195.179688 74.789062 194.917969 74.070312 194.613281 C 73.347656 194.316406 72.625 194.023438 71.90625 193.730469 C 71.191406 193.441406 70.488281 193.125 69.785156 192.828125 C 68.378906 192.230469 67.015625 191.597656 65.664062 190.976562 C 60.269531 188.472656 55.347656 185.789062 50.90625 183.132812 C 42.03125 177.808594 35.152344 172.539062 30.496094 168.460938 C 21.164062 160.308594 14.582031 152.296875 10.011719 145.226562 C 5.4375 138.148438 2.808594 132.046875 1.414062 127.175781 C 1.078125 125.945312 0.78125 124.816406 0.585938 123.746094 C 0.382812 122.671875 0.238281 121.679688 0.144531 120.765625 C -0.00390625 118.917969 0.03125 117.386719 0.25 116.121094 C 0.703125 113.578125 1.746094 112.164062 3.09375 111.558594 C 4.441406 110.953125 6.222656 111.113281 8.378906 112.230469 C 9.460938 112.792969 10.679688 113.574219 11.984375 114.621094 C 12.652344 115.136719 13.351562 115.714844 14.070312 116.363281 C 14.792969 117.011719 15.582031 117.707031 16.371094 118.488281 C 19.59375 121.578125 23.460938 125.6875 28.414062 130.835938 C 33.371094 135.980469 39.46875 142.144531 47.398438 149.082031 C 51.359375 152.546875 56.988281 157.328125 64.265625 162.464844 C 67.910156 165.019531 71.953125 167.679688 76.402344 170.246094 C 77.515625 170.882812 78.640625 171.539062 79.804688 172.160156 C 80.386719 172.472656 80.964844 172.804688 81.558594 173.113281 C 82.152344 173.421875 82.746094 173.730469 83.347656 174.042969 C 83.949219 174.367188 84.554688 174.640625 85.164062 174.9375 C 85.773438 175.230469 86.386719 175.527344 87.003906 175.820312 C 87.617188 176.121094 88.238281 176.421875 88.863281 176.722656 C 89.503906 176.996094 90.144531 177.269531 90.789062 177.546875 C 91.4375 177.824219 92.085938 178.105469 92.738281 178.386719 C 93.066406 178.527344 93.390625 178.667969 93.71875 178.8125 C 94.050781 178.949219 94.390625 179.066406 94.726562 179.199219 C 96.070312 179.714844 97.429688 180.234375 98.800781 180.757812 C 101.589844 181.710938 104.414062 182.714844 107.359375 183.539062 C 108.089844 183.761719 108.824219 183.976562 109.5625 184.199219 C 110.308594 184.390625 111.054688 184.589844 111.804688 184.785156 C 112.558594 184.980469 113.308594 185.175781 114.066406 185.371094 L 115.199219 185.667969 L 116.347656 185.921875 C 117.886719 186.265625 119.425781 186.625 120.984375 186.957031 C 122.550781 187.257812 124.121094 187.558594 125.699219 187.859375 C 138.363281 190.097656 151.707031 191.207031 164.789062 191.191406 C 171.324219 191.203125 177.8125 190.96875 184.140625 190.5625 C 190.464844 190.136719 196.625 189.527344 202.53125 188.816406 C 204.007812 188.628906 205.464844 188.441406 206.914062 188.261719 C 208.355469 188.058594 209.78125 187.855469 211.1875 187.652344 C 212.597656 187.460938 213.984375 187.234375 215.351562 187.019531 C 216.722656 186.796875 218.078125 186.601562 219.402344 186.367188 C 220.730469 186.132812 222.035156 185.90625 223.320312 185.6875 C 224.609375 185.472656 225.867188 185.214844 227.105469 184.988281 C 229.585938 184.539062 231.964844 184.050781 234.246094 183.589844 C 243.363281 181.730469 250.800781 179.914062 255.964844 178.609375 C 258.546875 177.96875 260.554688 177.425781 261.925781 177.070312 C 263.296875 176.707031 264.019531 176.519531 264.019531 176.519531 " fill-opacity="1" fill-rule="nonzero"/></g><path fill="#738fb4" d="M 167.953125 182.429688 C 167.953125 182.429688 165.65625 182.621094 161.574219 182.960938 C 160.546875 183 159.410156 183.046875 158.167969 183.09375 C 157.546875 183.121094 156.894531 183.144531 156.222656 183.171875 C 155.886719 183.183594 155.542969 183.203125 155.191406 183.203125 C 154.84375 183.203125 154.488281 183.203125 154.128906 183.203125 C 152.675781 183.195312 151.128906 183.191406 149.492188 183.183594 C 149.289062 183.183594 149.085938 183.183594 148.875 183.179688 C 148.667969 183.171875 148.460938 183.160156 148.253906 183.152344 C 147.832031 183.132812 147.40625 183.113281 146.976562 183.09375 C 146.117188 183.054688 145.230469 183.015625 144.328125 182.976562 C 137.101562 182.582031 128.566406 181.625 119.355469 179.71875 C 110.144531 177.820312 100.261719 174.976562 90.402344 171.019531 C 89.183594 170.492188 87.957031 169.964844 86.730469 169.4375 C 85.503906 168.902344 84.257812 168.402344 83.054688 167.789062 C 80.632812 166.613281 78.167969 165.476562 75.796875 164.136719 C 74.605469 163.484375 73.398438 162.851562 72.214844 162.175781 C 71.046875 161.46875 69.875 160.757812 68.707031 160.050781 L 66.957031 158.984375 C 66.378906 158.609375 65.800781 158.234375 65.222656 157.855469 C 64.652344 157.464844 64.082031 157.078125 63.515625 156.691406 C 62.953125 156.292969 62.390625 155.894531 61.832031 155.496094 C 52.929688 149.054688 45.1875 141.464844 38.910156 133.578125 C 35.773438 129.632812 33.007812 125.597656 30.636719 121.605469 C 29.453125 119.601562 28.367188 117.613281 27.378906 115.648438 C 26.394531 113.675781 25.511719 111.730469 24.714844 109.832031 C 23.152344 106.019531 21.949219 102.390625 21.121094 99.0625 C 20.285156 95.738281 19.78125 92.738281 19.507812 90.207031 C 18.945312 85.144531 19.085938 80.390625 19.667969 76.117188 C 19.738281 75.582031 19.832031 75.054688 19.914062 74.539062 C 20 74.015625 20.089844 73.503906 20.199219 73 C 20.304688 72.5 20.410156 72.003906 20.515625 71.511719 C 20.636719 71.027344 20.757812 70.546875 20.878906 70.070312 C 20.941406 69.835938 21.003906 69.601562 21.0625 69.367188 C 21.132812 69.136719 21.199219 68.90625 21.269531 68.675781 C 21.410156 68.222656 21.546875 67.773438 21.679688 67.328125 C 21.988281 66.457031 22.273438 65.597656 22.601562 64.785156 C 23.886719 61.523438 25.378906 58.789062 26.898438 56.523438 C 27.285156 55.964844 27.644531 55.414062 28.035156 54.914062 C 28.425781 54.410156 28.800781 53.925781 29.171875 53.464844 C 29.949219 52.570312 30.667969 51.746094 31.414062 51.042969 C 34.332031 48.203125 36.867188 46.839844 38.765625 46.285156 C 40.703125 45.765625 42.023438 46.050781 42.871094 46.804688 C 43.722656 47.554688 44.171875 48.851562 44.097656 50.691406 C 44.0625 52.554688 43.503906 54.96875 42.652344 58.105469 C 42.421875 58.882812 42.222656 59.726562 41.960938 60.597656 C 41.730469 61.472656 41.484375 62.402344 41.226562 63.386719 C 40.722656 65.347656 40.207031 67.523438 39.769531 69.953125 C 38.914062 74.816406 38.332031 80.714844 39.128906 88.082031 C 39.328125 89.921875 39.628906 92.136719 40.136719 94.675781 C 40.636719 97.214844 41.386719 100.074219 42.394531 103.179688 C 42.914062 104.726562 43.496094 106.339844 44.15625 108 C 44.828125 109.65625 45.574219 111.359375 46.402344 113.097656 C 48.070312 116.574219 50.066406 120.191406 52.410156 123.824219 C 57.09375 131.089844 63.140625 138.472656 70.308594 145 C 70.757812 145.402344 71.210938 145.808594 71.660156 146.210938 C 72.121094 146.609375 72.582031 147.007812 73.042969 147.402344 L 74.449219 148.566406 L 75.914062 149.703125 C 76.894531 150.464844 77.878906 151.226562 78.859375 151.988281 C 79.859375 152.722656 80.894531 153.429688 81.914062 154.152344 C 83.929688 155.632812 86.070312 156.933594 88.175781 158.289062 C 89.21875 158.988281 90.320312 159.589844 91.398438 160.222656 C 92.480469 160.847656 93.558594 161.480469 94.636719 162.101562 C 103.375 166.902344 112.410156 170.769531 120.992188 173.695312 C 129.574219 176.628906 137.707031 178.617188 144.6875 179.914062 C 145.5625 180.066406 146.417969 180.21875 147.253906 180.363281 C 147.671875 180.4375 148.082031 180.511719 148.492188 180.582031 C 148.695312 180.621094 148.898438 180.65625 149.097656 180.691406 C 149.300781 180.71875 149.503906 180.746094 149.699219 180.773438 C 151.300781 180.988281 152.8125 181.191406 154.226562 181.382812 C 154.582031 181.429688 154.929688 181.476562 155.277344 181.523438 C 155.617188 181.566406 155.957031 181.589844 156.289062 181.625 C 156.953125 181.6875 157.59375 181.746094 158.203125 181.800781 C 159.433594 181.917969 160.5625 182.019531 161.578125 182.113281 C 165.660156 182.316406 167.953125 182.429688 167.953125 182.429688 " fill-opacity="1" fill-rule="nonzero"/><g clip-path="url(#951a148155)"><path fill="#b3d3e6" d="M 143.679688 170.796875 C 143.679688 170.796875 142.953125 170.761719 141.582031 170.703125 C 141.238281 170.6875 140.855469 170.667969 140.429688 170.648438 C 140.007812 170.632812 139.546875 170.582031 139.046875 170.542969 C 138.050781 170.449219 136.890625 170.386719 135.605469 170.207031 C 134.957031 170.128906 134.277344 170.046875 133.5625 169.957031 C 132.847656 169.863281 132.101562 169.726562 131.324219 169.605469 C 129.757812 169.378906 128.085938 169.007812 126.277344 168.644531 C 122.683594 167.835938 118.640625 166.71875 114.292969 165.144531 C 109.949219 163.574219 105.304688 161.546875 100.539062 158.976562 C 95.765625 156.417969 90.914062 153.265625 86.113281 149.570312 C 81.300781 145.890625 76.628906 141.566406 72.199219 136.734375 C 71.648438 136.128906 71.113281 135.5 70.570312 134.878906 C 70.296875 134.570312 70.023438 134.257812 69.753906 133.945312 C 69.480469 133.632812 69.222656 133.304688 68.957031 132.984375 C 68.433594 132.339844 67.90625 131.695312 67.375 131.042969 C 66.867188 130.378906 66.355469 129.707031 65.847656 129.039062 L 65.078125 128.023438 L 64.34375 126.988281 C 63.855469 126.292969 63.355469 125.605469 62.875 124.898438 C 61.945312 123.46875 60.972656 122.046875 60.097656 120.554688 L 59.421875 119.445312 L 59.085938 118.890625 L 58.765625 118.328125 C 58.339844 117.566406 57.914062 116.808594 57.488281 116.050781 C 57.0625 115.289062 56.683594 114.5 56.277344 113.726562 L 55.675781 112.554688 C 55.476562 112.164062 55.296875 111.761719 55.109375 111.367188 C 54.734375 110.570312 54.359375 109.769531 53.984375 108.972656 C 53.632812 108.140625 53.28125 107.308594 52.929688 106.476562 C 52.589844 105.636719 52.28125 104.785156 51.957031 103.933594 C 51.792969 103.511719 51.648438 103.078125 51.503906 102.644531 L 51.070312 101.347656 C 48.835938 94.40625 47.523438 87.011719 47.582031 79.457031 C 47.65625 71.90625 49.117188 64.238281 52.242188 57.144531 C 53.015625 55.367188 53.914062 53.664062 54.867188 52.003906 C 55.367188 51.191406 55.84375 50.359375 56.382812 49.578125 C 56.644531 49.1875 56.910156 48.792969 57.171875 48.398438 C 57.449219 48.019531 57.726562 47.636719 58.003906 47.257812 C 60.222656 44.222656 62.734375 41.523438 65.351562 39.097656 C 67.96875 36.671875 70.730469 34.578125 73.511719 32.726562 C 76.292969 30.875 79.105469 29.277344 81.898438 27.90625 C 87.480469 25.148438 92.941406 23.222656 98.046875 21.832031 C 100.609375 21.132812 103.035156 20.585938 105.523438 20.125 C 106.132812 20.007812 106.742188 19.921875 107.34375 19.824219 C 107.945312 19.734375 108.535156 19.625 109.121094 19.5625 C 110.296875 19.421875 111.4375 19.265625 112.550781 19.1875 C 117 18.796875 120.925781 18.84375 124.167969 19.074219 C 127.414062 19.3125 130.492188 19.734375 133.386719 20.308594 C 136.28125 20.890625 138.992188 21.605469 141.527344 22.398438 C 146.585938 24.023438 150.941406 25.957031 154.648438 27.988281 C 158.355469 30.019531 161.445312 32.117188 164.023438 34.148438 C 166.601562 36.1875 168.671875 38.148438 170.335938 39.976562 C 171.992188 41.8125 173.253906 43.5 174.183594 45.027344 C 174.644531 45.792969 175.039062 46.507812 175.347656 47.195312 C 175.65625 47.878906 175.894531 48.515625 176.074219 49.109375 C 176.769531 51.503906 176.460938 53.195312 175.550781 54.296875 C 174.632812 55.40625 173.03125 56.019531 170.664062 55.96875 C 168.285156 55.933594 165.136719 55.238281 161.035156 53.9375 C 156.925781 52.660156 151.863281 50.742188 145.527344 48.734375 C 142.363281 47.722656 138.871094 46.734375 135.027344 45.855469 C 133.105469 45.4375 131.09375 45.039062 128.988281 44.703125 C 126.882812 44.375 124.683594 44.121094 122.386719 43.957031 C 120.089844 43.789062 117.339844 43.675781 114.203125 43.792969 C 113.417969 43.804688 112.613281 43.882812 111.78125 43.925781 C 111.363281 43.945312 110.945312 44.003906 110.515625 44.039062 C 110.089844 44.085938 109.65625 44.109375 109.21875 44.167969 C 107.503906 44.371094 105.539062 44.671875 103.566406 45.058594 C 99.601562 45.820312 95.375 46.941406 91.152344 48.566406 C 89.039062 49.378906 86.941406 50.324219 84.890625 51.417969 C 82.84375 52.515625 80.832031 53.742188 78.953125 55.160156 C 77.078125 56.574219 75.28125 58.125 73.683594 59.882812 L 73.082031 60.542969 L 72.511719 61.226562 C 72.113281 61.675781 71.773438 62.160156 71.398438 62.632812 C 70.699219 63.601562 70.007812 64.597656 69.40625 65.65625 C 69.257812 65.917969 69.089844 66.175781 68.949219 66.449219 L 68.523438 67.265625 C 68.371094 67.53125 68.246094 67.820312 68.117188 68.109375 L 67.71875 68.96875 C 67.433594 69.535156 67.230469 70.144531 66.992188 70.738281 C 66.875 71.039062 66.75 71.339844 66.640625 71.640625 L 66.34375 72.570312 C 65.53125 75.050781 64.949219 77.6875 64.605469 80.421875 C 63.925781 85.898438 64.234375 91.753906 65.371094 97.535156 L 65.59375 98.621094 C 65.667969 98.980469 65.742188 99.34375 65.835938 99.699219 C 66.019531 100.417969 66.183594 101.140625 66.378906 101.855469 L 66.996094 103.992188 C 67.238281 104.71875 67.476562 105.445312 67.71875 106.167969 C 67.839844 106.53125 67.949219 106.898438 68.082031 107.253906 L 68.484375 108.328125 C 68.757812 109.039062 69 109.765625 69.292969 110.46875 C 69.585938 111.175781 69.875 111.882812 70.167969 112.585938 L 70.386719 113.117188 L 70.621094 113.636719 L 71.09375 114.675781 C 71.703125 116.078125 72.40625 117.425781 73.074219 118.792969 C 73.425781 119.464844 73.792969 120.128906 74.148438 120.800781 L 74.6875 121.796875 L 75.257812 122.777344 C 75.640625 123.433594 76.023438 124.085938 76.402344 124.730469 C 76.804688 125.371094 77.203125 126.003906 77.601562 126.640625 C 77.804688 126.957031 77.996094 127.28125 78.207031 127.589844 C 78.417969 127.898438 78.625 128.207031 78.835938 128.515625 C 79.257812 129.132812 79.664062 129.757812 80.097656 130.363281 C 83.546875 135.199219 87.304688 139.6875 91.304688 143.628906 C 95.292969 147.585938 99.433594 151.097656 103.601562 154.066406 C 107.757812 157.046875 111.902344 159.535156 115.851562 161.570312 C 119.796875 163.605469 123.542969 165.195312 126.917969 166.4375 C 128.617188 167.011719 130.199219 167.589844 131.691406 168.011719 C 132.4375 168.230469 133.148438 168.460938 133.835938 168.644531 C 134.519531 168.824219 135.179688 168.992188 135.796875 169.15625 C 137.039062 169.5 138.164062 169.707031 139.136719 169.933594 C 139.621094 170.039062 140.070312 170.148438 140.484375 170.222656 C 140.902344 170.296875 141.277344 170.363281 141.613281 170.421875 C 142.964844 170.667969 143.679688 170.796875 143.679688 170.796875 " fill-opacity="1" fill-rule="nonzero"/></g><g fill="#ffffff" fill-opacity="1"><g transform="translate(105.541848, 86.338764)"><g><path d="M 52.125 -37 L 58.984375 -37 C 61.890625 -37 64.171875 -39.078125 64.171875 -41.640625 C 64.171875 -43.65625 62.890625 -44.796875 60.46875 -44.859375 L 37.203125 -44.859375 C 34.3125 -44.859375 31.953125 -42.78125 31.953125 -40.21875 C 31.953125 -38.203125 33.296875 -37.0625 35.65625 -37 L 42.921875 -37 L 31.546875 -8.953125 C 30.734375 -6.921875 29.796875 -4.84375 28.859375 -3.03125 C 27.375 0 26.234375 1.8125 25.015625 3.09375 C 22.9375 5.375 20.78125 6.453125 18.296875 6.453125 C 13.859375 6.453125 11.09375 3.5 11.09375 -1.140625 C 11.09375 -9.28125 18.09375 -15.875 27.171875 -16.40625 C 32.421875 -16.6875 34.3125 -17.890625 34.3125 -20.859375 C 34.3125 -23.46875 32.015625 -24.953125 28.109375 -24.953125 C 13.921875 -24.953125 1.8125 -13.71875 1.8125 -0.40625 C 1.8125 8.875 8.140625 15.140625 17.5625 15.140625 C 26.4375 15.140625 32.828125 9.828125 37.671875 -1.546875 C 38.34375 -3.15625 39.6875 -6.25 40.765625 -8.953125 Z M 52.125 -37 "/></g></g></g></svg>